<?xml version="1.0" standalone="no"?>
<!DOCTYPE svg PUBLIC "-//W3C//DTD SVG 1.1//EN" "http://www.w3.org/Graphics/SVG/1.1/DTD/svg11.dtd" >
<svg>
<metadata>
Created by FontForge 20090622 at Thu Dec 17 20:00:40 2015
 By deploy user
Copyright 1990-1993 FontBank, Inc.
</metadata>
<defs>
<font id="Futana" horiz-adv-x="507" >
  <font-face 
    font-family="Futana"
    font-weight="5"
    font-stretch="normal"
    units-per-em="1000"
    panose-1="0 0 0 0 0 0 0 0 0 0"
    ascent="800"
    descent="-200"
    x-height="562"
    cap-height="720"
    bbox="-115 -212 776 884"
    underline-thickness="20"
    underline-position="-143"
    unicode-range="U+0020-U+25CA"
  />
<missing-glyph horiz-adv-x="770" 
d="M48 0v770h674v-770h-674zM674 48v674h-578v-674h578z" />
    <glyph glyph-name=".notdef" horiz-adv-x="770" 
d="M48 0v770h674v-770h-674zM674 48v674h-578v-674h578z" />
    <glyph glyph-name=".null" unicode="&#xd7;" horiz-adv-x="0" 
 />
    <glyph glyph-name="nonmarkingreturn" horiz-adv-x="290" 
 />
    <glyph glyph-name="space" unicode=" " horiz-adv-x="290" 
 />
    <glyph glyph-name="exclam" unicode="!" horiz-adv-x="260" 
d="M50 0h174v171h-174v-171zM51 219v501h173v-501h-173z" />
    <glyph glyph-name="quotedbl" unicode="&#x22;" horiz-adv-x="396" 
d="M56 720h126l-22 -246h-126zM236 720h126l-22 -246h-126z" />
    <glyph glyph-name="dollar" unicode="$" horiz-adv-x="454" 
d="M36 0v164h185v110h-88q-47 0 -71 26.5t-24 88.5l-1 24v158q0 85 30 117t105 32l17 -1l1 93h76v-92h152v-158h-187v-105h99q24 0 38.5 -5t26.5 -17t17 -27.5t5 -44.5v-240q0 -38 -1 -48.5t-8 -23.5q-26 -51 -98 -51h-46v-87l-76 1v86h-152z" />
    <glyph glyph-name="percent" unicode="%" horiz-adv-x="797" 
d="M148 0l428 760l72 -40l-430 -758zM36 407v263l1 11q7 35 46 40h11h175h11q39 -5 46 -40l1 -11v-263q0 -35 -13.5 -48.5t-47.5 -13.5h-169q-41 0 -55 31q-4 10 -6 31zM470 61v264l1 10q7 35 46 40l11 1h175l11 -1q22 -3 32.5 -12.5t13.5 -27.5l1 -10v-264
q0 -35 -13.5 -48.5t-47.5 -13.5h-169q-44 0 -57 31q-4 10 -4 31zM182 436q25 0 25 34v134q0 23 -19 27q-6 3 -13 0q-19 -4 -19 -27v-134q-5 -13 3.5 -23.5t22.5 -10.5zM616 90q25 0 25 34v134q0 22 -19 28h-13q-19 -6 -19 -28v-134q0 -34 26 -34z" />
    <glyph glyph-name="ampersand" unicode="&#x26;" horiz-adv-x="668" 
d="M34 289q0 37 30 57l66 45l-63 69q-8 10 -11.5 20t-3.5 23v151q0 66 87 66h275q31 0 40.5 -2.5t20.5 -14.5q16 -17 16 -45v-155q0 -38 -10 -56t-45 -39l-13 -7l-45 -22l107 -120l92 59l89 -118l-92 -58l41 -63q45 -69 50 -79h-200l-37 54l-44 -26l-38 -18q-30 -10 -50 -10
h-163q-53 0 -74 16t-25 60v213zM239 140h31q31 0 46 10l24 16l-105 123l-6 -3q-22 -13 -22 -32v-81q-1 -16 3 -22q8 -11 29 -11zM243 505l32 -28l37 27q11 8 11 34v35q0 24 -26 24h-38q-27 0 -27 -22v-36q0 -24 11 -34z" />
    <glyph glyph-name="quotesingle" unicode="'" horiz-adv-x="216" 
d="M34 474l22 246h126l-22 -246h-126z" />
    <glyph glyph-name="parenleft" unicode="(" horiz-adv-x="272" 
d="M98 806h174q-23 -67 -37.5 -137t-22.5 -151q-4 -40 -6 -77.5t-2 -80.5q0 -73 8 -159q16 -157 60 -288h-174q-24 63 -40 137.5t-24 171.5q-3 27 -4 73.5t-1 124.5q0 13 0.5 25t4.5 52q9 105 23.5 172.5t40.5 136.5z" />
    <glyph glyph-name="parenright" unicode=")" horiz-adv-x="272" 
d="M0 -87q23 68 37.5 137.5t22.5 151.5q4 32 6 75.5t2 82.5q0 62 -1.5 86.5t-6.5 71.5q-16 156 -60 288h174q24 -64 39.5 -136t24.5 -173q2 -26 2.5 -87.5t1.5 -110.5v-46q-3 -21 -4 -31q-18 -187 -64 -309h-174z" />
    <glyph glyph-name="asterisk" unicode="*" horiz-adv-x="472" 
d="M29 577l95 -9l-75 58l17 23q25 32 62 57l59 -74l-7 94q27 8 54 8q30 0 55 -7l-8 -93l58 73l24 -16q34 -26 55 -62l-71 -60l94 11q9 -27 9 -56t-9 -56l-92 5l72 -58l-16 -24q-26 -33 -63 -55l-61 71l9 -93q-24 -7 -53 -7q-25 0 -54 8v93l-55 -72q-48 29 -78 79l71 61
l-92 -9q-3 13 -5 25t-2 25q0 33 7 60z" />
    <glyph glyph-name="comma" unicode="," horiz-adv-x="273" 
d="M-22 -102l97 251h176l-149 -251h-124z" />
    <glyph glyph-name="hyphen" unicode="-" horiz-adv-x="317" 
d="M22 197v162h273v-162h-273z" />
    <glyph glyph-name="period" unicode="." horiz-adv-x="237" 
d="M29 0v173h172v-173h-172z" />
    <glyph glyph-name="slash" unicode="/" horiz-adv-x="514" 
d="M7 0l429 760l71 -40l-429 -758z" />
    <glyph glyph-name="zero" unicode="0" horiz-adv-x="513" 
d="M36 117v494q0 49 24 79t60 30h272q36 0 60.5 -29.5t24.5 -79.5v-494q0 -63 -21.5 -89.5t-72.5 -26.5l-16 -1h-221l-16 1q-48 0 -71 33.5t-23 82.5zM243 145q10 -2 15 -2q38 0 38 45v354l-2 11q-7 33 -38 33t-38 -32l-1 -12v-354q0 -36 26 -43z" />
    <glyph glyph-name="one" unicode="1" horiz-adv-x="508" 
d="M82 0v158h91v404h-91l75 158h199v-562h93v-158h-367z" />
    <glyph glyph-name="two" unicode="2" horiz-adv-x="512" 
d="M33 408v234l2 17q7 32 25.5 46.5t59.5 14.5h12h259q49 0 68 -24.5t19 -96.5l1 -27q0 -69 -12.5 -123.5t-43.5 -118.5l-24 -45q-41 -71 -101 -130h180v-155h-442v147q89 58 159 150q35 47 54 86t31 88l5 22q5 28 5 41q0 40 -42 40q-35 -3 -35 -38v-128h-180z" />
    <glyph glyph-name="three" unicode="3" horiz-adv-x="514" 
d="M37 84v162h182v-72q0 -40 35 -40q38 0 38 41v80q0 19 -7 26t-29 7h-47v139h48q21 0 29 8t8 32v71q0 17 -12.5 26.5t-32.5 6.5q-28 -4 -28 -31v-83h-184v185q0 44 19 61t70 17h242q46 0 66.5 -10.5t34.5 -40.5q8 -19 8 -33v-161q0 -46 -10 -68t-36 -33l-12 -5l-13 -4
l-17 -6l-10 -3q8 0 13 -1t23 -7q29 -12 41.5 -25.5t17.5 -43.5l2 -14v-141l-1 -23q-4 -45 -21.5 -67.5t-54.5 -31.5l-18 -2h-270l-14 1q-33 7 -46.5 25.5t-13.5 57.5z" />
    <glyph glyph-name="four" unicode="4" horiz-adv-x="512" 
d="M-9 127l210 593h268v-454h52v-140h-49l-7 -126h-176v127h-298zM287 267v302l-105 -302h105z" />
    <glyph glyph-name="five" unicode="5" horiz-adv-x="512" 
d="M37 340v380h417v-158h-220v-70h152q23 0 34.5 -1.5t28.5 -14.5q26 -20 26 -51v-310q0 -81 -58 -106q-23 -9 -38 -9h-259q-82 0 -82 85v165h173v-63q0 -43 28 -51q11 -3 19 -3q36 0 36 52v155h-257z" />
    <glyph glyph-name="six" unicode="6" horiz-adv-x="513" 
d="M39 101v531q0 46 23 67t74 21h251q41 0 60.5 -13t25.5 -46l1 -12v-170h-157v37q0 68 -48 68q-7 0 -11 -1q-36 -5 -36 -42v-107h164q43 0 63.5 -22.5t20.5 -72.5v-237q0 -39 -7 -54q-12 -26 -32.5 -37t-59.5 -11h-227q-50 0 -77.5 31.5t-27.5 69.5zM222 163q7 -32 32 -32
q4 0 14 2q22 6 22 41v81q0 32 -26 41q-8 2 -11 2q-31 0 -31 -46v-82v-7z" />
    <glyph glyph-name="seven" unicode="7" horiz-adv-x="514" 
d="M9 562v158h496l-308 -720h-184l245 562h-249z" />
    <glyph glyph-name="eight" unicode="8" horiz-adv-x="513" 
d="M41 95v185l2 15q5 27 22 42t56 25l16 3l-13 3q-45 10 -63.5 27t-18.5 49v201l2 15q13 60 78 60h269q65 0 79 -60l1 -15v-201q0 -32 -18 -49t-64 -27l-13 -3l16 -3q39 -10 56.5 -24.5t22.5 -42.5l1 -15v-190l-1 -17q-6 -36 -21.5 -54.5t-34.5 -18.5h-276l-19 1
q-39 5 -54.5 20t-23.5 57q-2 11 -1 17zM236 135q11 -6 21 -6q11 0 20 6q17 12 17 41v77l-1 10q-8 28 -36 28t-36 -28l-2 -10v-77q-3 -12 2 -23t15 -18zM256 429q36 0 36 44v92q0 30 -37 30q-35 0 -35 -30v-92q0 -44 36 -44z" />
    <glyph glyph-name="nine" unicode="9" horiz-adv-x="513" 
d="M39 71v170h157v-37q0 -68 47 -68q7 0 11 1q37 4 37 42v107h-164q-43 0 -63.5 22.5t-20.5 72.5v237q0 26 1 34t6 20q12 26 32.5 37t59.5 11h227q105 0 105 -101v-531q0 -47 -22.5 -67.5t-74.5 -20.5h-251q-41 0 -60.5 13t-25.5 46zM249 424q8 -2 11 -2q31 0 31 46v82v7
q-7 32 -32 32q-4 0 -14 -2q-22 -6 -22 -41v-81q0 -32 26 -41z" />
    <glyph glyph-name="colon" unicode=":" horiz-adv-x="259" 
d="M51 0h172v173h-172v-173zM50 391v171h173v-171h-173z" />
    <glyph glyph-name="semicolon" unicode=";" horiz-adv-x="259" 
d="M51 389h172v172h-172v-172zM-32 -102l97 251h176l-149 -251h-124z" />
    <glyph glyph-name="question" unicode="?" horiz-adv-x="455" 
d="M75 0h172l-1 171h-171v-171zM22 502v135q0 29 14 51q23 32 67 32h224q47 0 69.5 -23.5t22.5 -74.5v-191q0 -49 -17 -72t-64 -37l-7 -2l-15 -4l-7 -2l-25 -9q-36 -13 -36 -48v-38h-173v72l1 15q8 42 52 68l21 13l31 18l5 2l19 16q13 13 19 30.5t6 42.5v94h-61v-88h-146z
" />
    <glyph glyph-name="A" unicode="A" horiz-adv-x="537" 
d="M36 0v615q0 33 5 50t19 30q25 25 64 25h289q40 0 65 -25q13 -13 18 -29.5t5 -50.5v-615h-194v158h-77v-158h-194zM307 311v209q0 48 -38 48q-39 0 -39 -48v-209h77z" />
    <glyph glyph-name="B" unicode="B" horiz-adv-x="532" 
d="M36 0v720h338q110 0 124 -91l1 -18v-132q0 -82 -86 -110l-17 -5l-10 -3l7 -1l18 -3q92 -19 92 -101v-137q0 -46 -18.5 -73.5t-38.5 -36.5t-64 -9q-2 -1 -46 -1h-66h-23h-16h-35h-30h-26h-21h-17h-14h-11h-27.5t-13.5 1zM264 151q30 0 35.5 7t5.5 31v57q0 38 -45 38h-28
v-133h20.5h11.5zM262 437q45 -5 45 48v37q0 33 -28 41l-14 2h-32v-124z" />
    <glyph glyph-name="C" unicode="C" horiz-adv-x="366" 
d="M36 134v452l3 32q10 56 38 79t82 23h185v-172h-74q-26 0 -33 -24q-2 -3 -2 -12v-305l1 -8q5 -27 33 -27h74v-172h-184q-54 0 -81.5 23t-38.5 79z" />
    <glyph glyph-name="D" unicode="D" horiz-adv-x="537" 
d="M36 0v720h356q52 0 80.5 -35t28.5 -106v-439q0 -76 -19 -105q-23 -35 -89 -35h-357zM265 162q24 0 32.5 11.5t8.5 47.5v285q0 56 -42 56h-34v-400h35z" />
    <glyph glyph-name="E" unicode="E" horiz-adv-x="460" 
d="M36 148v419l2 32q8 68 36 94.5t89 26.5h261v-158h-192v-123h191v-163h-191v-114h190v-162h-256q-130 0 -130 148z" />
    <glyph glyph-name="F" unicode="F" horiz-adv-x="384" 
d="M36 0v720h330v-158h-132v-124h130v-166h-132v-272h-196z" />
    <glyph glyph-name="G" unicode="G" horiz-adv-x="541" 
d="M36 139v463q0 68 26 93t95 25h347v-179q-16 10 -27 13.5t-35 3.5l-22 1h-13h-132q-27 0 -38 -19q-3 -5 -4 -13t-1 -33v-283q0 -23 7.5 -31.5t27.5 -8.5h44v156q0 37 -13 67l-12 22h219v-266q0 -77 -22.5 -113.5t-65.5 -36.5h-282q-54 0 -76.5 30t-22.5 109z" />
    <glyph glyph-name="H" unicode="H" horiz-adv-x="541" 
d="M36 0v720h195v-272h79v272h195v-720h-195v279h-78v-279h-196z" />
    <glyph glyph-name="I" unicode="I" horiz-adv-x="267" 
d="M36 0v720h195v-720h-195z" />
    <glyph glyph-name="J" unicode="J" horiz-adv-x="312" 
d="M-14 0l13 186l4 -1l15 -4l11 -2q14 -2 18 -2q33 0 33 53v490h196v-568q0 -87 -47 -125.5t-154 -38.5q-13 0 -29.5 2l-31.5 4z" />
    <glyph glyph-name="K" unicode="K" horiz-adv-x="547" 
d="M36 0v720h194v-279l4 -1h5h8q47 0 58 51l2 16v121v34v5l2 16q3 17 11 37h205l-4 -10l-5 -12q-8 -21 -11 -35t-3 -36v-144q0 -45 -19.5 -67.5t-79.5 -44.5l-11 -3l12 -3q62 -14 85.5 -41.5t23.5 -85.5v-145q0 -38 3 -56.5t13 -36.5h-195q-10 14 -14 29t-4 45v141
q0 52 -42 52l-10 1h-7l-27 -1v-267h-194z" />
    <glyph glyph-name="L" unicode="L" horiz-adv-x="351" 
d="M22 720h231q-10 -28 -15.5 -54t-5.5 -57v-24v-413q15 -3 32 -3q26 0 71 10l16 5l14 4l-30 -188h-297v570v18q0 45 -8 92l-4 22z" />
    <glyph glyph-name="M" unicode="M" horiz-adv-x="812" 
d="M14 720h197q16 -46 16 -90v-18l15 34q19 43 35 58.5t41 15.5h119l17 -2q25 -6 37 -23t19 -60l1 -9l11 29q13 35 31 50t49 15l92 1q42 0 62 -28t20 -94v-599h-195l3 509q0 41 -26 47q-10 2 -14 2q-31 0 -37 -39l-1 -11v-508h-194v504q0 52 -41 52q-39 0 -39 -51v-505h-196
v590q0 50 -13 99l-5 19z" />
    <glyph glyph-name="N" unicode="N" horiz-adv-x="540" 
d="M14 720h201q5 -16 9 -31t4 -33l1 -16l1 -12l5 16q32 76 98 76h81q47 0 68.5 -29t21.5 -94v-597h-195v499q0 22 -3 30.5t-13 15.5t-22 7q-39 0 -39 -55v-497h-195v590q0 53 -17 112z" />
    <glyph glyph-name="O" unicode="O" horiz-adv-x="535" 
d="M29 266v183l1 30q0 134 33 182.5t123 56.5l34 2h96l33 -2q71 -6 103 -34t48 -100q4 -18 5 -41t1 -94v-183v-31q0 -72 -13 -110.5t-44.5 -71t-67 -43t-113.5 -10.5h-50q-85 0 -135 57q-53 61 -53 174zM268 157q20 0 29 13.5t9 48.5v310q0 43 -26 49q-4 1 -7 1h-7
q-36 0 -36 -50v-310q0 -34 9 -48t29 -14z" />
    <glyph glyph-name="P" unicode="P" horiz-adv-x="515" 
d="M36 0v720h354q61 0 86 -25t25 -88v-23v-199v-27q0 -70 -27.5 -102t-82.5 -32h-160v-224h-195zM270 389q38 0 38 44v86q0 43 -40 43h-35v-173h37z" />
    <glyph glyph-name="Q" unicode="Q" horiz-adv-x="535" 
d="M29 266v183l1 30q0 134 33 182.5t123 56.5l34 2h96l33 -2q71 -6 103 -34t48 -100q4 -18 5 -41t1 -94v-183v-30q0 -56 -7 -87t-23 -58q-51 -88 -138 -88v-52q0 -23 22 -26l7 -1l55 1v-119h-158q-60 0 -60 53l-1 142q-92 0 -143 90q-15 27 -21 51q-9 37 -9 106zM268 157
q20 0 29 13.5t9 48.5v310q0 43 -26 49q-4 1 -7 1h-7q-36 0 -36 -50v-310q0 -34 9 -48t29 -14z" />
    <glyph glyph-name="R" unicode="R" horiz-adv-x="539" 
d="M36 0v720h328q140 0 140 -121v-102l-2 -25q-5 -48 -26 -71t-68 -33l-17 -2l17 -3q53 -11 76 -39.5t23 -83.5v-155q0 -29 3 -41t16 -35l6 -9h-207q-16 22 -20 62v14v149l-1 11q-7 34 -44 34h-29v-270h-195zM254 434q32 0 41 17.5t9 76.5q-3 37 -53 37h-18v-131h21z" />
    <glyph glyph-name="S" unicode="S" horiz-adv-x="435" 
d="M26 0v164h185v110h-88q-47 0 -71 26.5t-24 88.5l-1 24v158q0 67 13 96t49 45q11 4 25.5 6t47.5 2h246v-158h-187v-105h99q24 0 38.5 -5t26.5 -17t17 -27.5t5 -44.5v-240q0 -38 -1 -48.5t-8 -23.5q-14 -28 -35.5 -39.5t-62.5 -11.5h-274z" />
    <glyph glyph-name="T" unicode="T" horiz-adv-x="375" 
d="M-7 562v158h389v-158h-99v-562h-194v562h-96z" />
    <glyph glyph-name="U" unicode="U" horiz-adv-x="541" 
d="M36 93v627h195v-514q0 -19 1.5 -29t13.5 -18l10 -5q11 -3 18 -3q36 0 36 58v511h195v-627l-1 -10l-1 -21q0 -33 -18.5 -47.5t-61.5 -14.5h-306q-43 0 -61.5 14.5t-18.5 47.5l-1 22v9z" />
    <glyph glyph-name="V" unicode="V" horiz-adv-x="529" 
d="M29 510v210h195v-323v-44t4.5 -55t12.5 -65t24 -59q15 29 23.5 60t14.5 82q2 26 2.5 45t0.5 36v323h194v-210v-44v-19l-1 -30q0 -91 -17 -160q-13 -51 -51 -143q-22 -53 -58 -114h-217q-31 52 -58 114q-37 91 -50 143q-17 69 -17 160l-1 30l-1 21v42z" />
    <glyph glyph-name="W" unicode="W" horiz-adv-x="807" 
d="M36 189v531h194v-509v-10q6 -49 36 -49q7 0 19 5.5t17.5 18.5t5.5 38v506h191v-506q0 -45 23 -57q12 -5 19 -5q30 0 36 49v10v509h194v-531v-28q0 -87 -32 -124t-99 -37h-111q-48 0 -78.5 29t-43.5 92l-4 25l-3 -25q-12 -62 -42.5 -91.5t-79.5 -29.5h-111q-67 0 -97 35
q-33 38 -33 126z" />
    <glyph glyph-name="X" unicode="X" horiz-adv-x="544" 
d="M36 0v259q0 31 19.5 53.5t67.5 42.5l11 4l-11 4q-47 20 -67 47t-20 74v236h196v-207l1 -17q7 -52 39 -77q32 25 39 77l1 17v207h196v-236q0 -45 -19.5 -73.5t-64.5 -46.5l-14 -5l11 -4q47 -19 67 -42t20 -54v-259h-194v193l-2 20q-8 54 -40 77q-16 -12 -26 -30t-14 -47
l-2 -20v-193h-194z" />
    <glyph glyph-name="Y" unicode="Y" horiz-adv-x="524" 
d="M29 444v276h193v-287q0 -43 9.5 -68.5t30.5 -42.5q20 16 29.5 42t9.5 69v287h194v-276l-2 -35q-8 -60 -36 -109t-82 -94l-17 -13v-193h-192v193l-17 13q-54 45 -81.5 92.5t-36.5 110.5z" />
    <glyph glyph-name="Z" unicode="Z" horiz-adv-x="408" 
d="M4 0l160 562h-160l28 158h376l-167 -546h158l-24 -174h-371z" />
    <glyph glyph-name="bracketleft" unicode="[" horiz-adv-x="248" 
d="M36 -93v906h205v-94h-44v-719h44v-93h-205z" />
    <glyph glyph-name="backslash" unicode="\" horiz-adv-x="320" 
d="M34 720h126l126 -720h-126z" />
    <glyph glyph-name="bracketright" unicode="]" horiz-adv-x="248" 
d="M7 -93v94h44v719h-44v93h205v-906h-205z" />
    <glyph glyph-name="asciicircum" unicode="^" horiz-adv-x="537" 
d="M34 155l234 421l235 -421h-143l-92 180l-91 -180h-143z" />
    <glyph glyph-name="underscore" unicode="_" horiz-adv-x="428" 
d="M34 -40v40h360v-40h-360z" />
    <glyph glyph-name="grave" unicode="`" horiz-adv-x="273" 
d="M0 721h175l62 -123h-116z" />
    <glyph glyph-name="a" unicode="a" 
d="M36 116v342q0 31 14 56q29 48 82 48h68q26 0 38 -7t31 -34q4 -5 12 -19q4 -7 8 -13v73h182v-562h-179v77l-7 -13l-17 -26q-17 -22 -31 -30t-37 -8h-54q-72 0 -98 58q-8 19 -12 58zM222 155q9 -23 32 -23q12 0 24.5 10t12.5 35v209q0 41 -38 41q-35 0 -35 -46v-202
q0 -10 4 -24z" />
    <glyph glyph-name="b" unicode="b" horiz-adv-x="503" 
d="M36 0v720h182v-250l26 53q18 39 64 39h72q35 0 57.5 -21.5t27.5 -61.5l2 -18v-358l-1 -15q-5 -47 -25.5 -67.5t-62.5 -20.5h-65q-28 0 -42.5 7t-32.5 29l-14 21q-7 12 -7 14v-71h-181zM243 129q9 -3 16 -3q14 0 23.5 7.5t9.5 19.5v236l-1 11q-11 27 -41 23
q-18 -3 -25 -13t-7 -34v-204q0 -36 25 -43z" />
    <glyph glyph-name="c" unicode="c" horiz-adv-x="342" 
d="M36 79v392q0 91 100 91h182v-142h-61q-25 0 -33 -7t-8 -32v-210q0 -20 9.5 -26.5t39.5 -6.5h55v-138h-198q-26 0 -38 3t-24 13t-18 24.5t-6 38.5z" />
    <glyph glyph-name="d" unicode="d" horiz-adv-x="509" 
d="M36 98v362q0 61 40 87q25 15 47 15h70q30 0 47.5 -11t33.5 -41l8 -14l7 -15l4 -9v248h180v-720h-182v73l-7 -12q-17 -31 -38 -46t-44 -15h-83q-51 0 -74 45q-5 10 -7.5 20t-2.5 23q0 7 1 10zM226 138q9 -10 25 -10q7 0 14 3t15 11q11 17 11 29v217q0 30 -28 36
q-8 2 -12 2q-35 0 -35 -44v-219q0 -14 10 -25z" />
    <glyph glyph-name="e" unicode="e" horiz-adv-x="490" 
d="M36 109v360q0 51 23 72t80 21h220q33 0 49 -6t29 -22q9 -11 13 -25.5t4 -40.5v-252h-240v-46q0 -29 41 -29h197v-141h-309h-53q-37 0 -49 54q-4 18 -5 55zM283 316v73q0 20 -12 31t-30 7q-26 -7 -26 -37v-74h68z" />
    <glyph glyph-name="f" unicode="f" horiz-adv-x="292" 
d="M4 360v144h48v60l1 28q0 63 22.5 95t62.5 32l7 1h36h114v-130l-5 1h-14q-41 0 -41 -40v-47h60v-144h-62v-360h-180v360h-49z" />
    <glyph glyph-name="g" unicode="g" 
d="M36 -101v44h158v-6q0 -38 52 -38q38 0 44 31l1 9v61h-156q-60 0 -79 30.5t-19 129.5v251q0 90 23.5 120.5t89.5 30.5h225q53 0 74.5 -23.5t21.5 -82.5v-543q0 -59 -30 -83t-59 -24h-254q-15 0 -22 2q-37 9 -55 33t-15 58zM235 133q11 -6 23 -5q18 0 28 18q3 4 4 12t1 27
v203q0 39 -34 39q-4 0 -12 -2q-28 -6 -28 -36v-211q0 -31 18 -45z" />
    <glyph glyph-name="h" unicode="h" horiz-adv-x="505" 
d="M36 0v720h181v-253q2 9 7.5 21.5t10.5 21.5q18 30 34 41t42 11h70q88 0 88 -105v-457h-180v391q0 38 -34 38q-9 0 -14 -2q-27 -10 -27 -41l2 -386h-180z" />
    <glyph glyph-name="i" unicode="i" horiz-adv-x="253" 
d="M37 0h180v562h-180v-562zM36 596v124h181v-124h-181z" />
    <glyph glyph-name="j" unicode="j" horiz-adv-x="254" 
d="M36 -194h181v756h-181v-756zM38 597v123h180v-123h-180z" />
    <glyph glyph-name="k" unicode="k" horiz-adv-x="498" 
d="M36 0v720h181v-376l17 -1l10 1q45 6 45 67v151h177v-149q0 -56 -41 -92q-10 -8 -20 -13t-31 -13l-18 -6l-12 -3l14 -2q61 -10 85 -33.5t24 -71.5v-95q0 -56 24 -84h-187q-9 16 -13 33.5t-4 50.5v68q0 30 -13 42t-43 12l-14 -1v-205h-181z" />
    <glyph glyph-name="l" unicode="l" horiz-adv-x="251" 
d="M36 0v720h179v-720h-179z" />
    <glyph glyph-name="m" unicode="m" horiz-adv-x="763" 
d="M36 0v562h179v-83q11 23 25 40q21 25 37.5 34t40.5 9h67q61 0 84 -65l4 -15l6 10q20 36 45 53t53 17h55q50 0 72.5 -25.5t22.5 -82.5v-454h-181v392q0 19 -9 30t-25 11q-4 0 -12 -2q-29 -8 -29 -40v-391h-179v390q0 39 -33 39q-43 0 -43 -39v-390h-180z" />
    <glyph glyph-name="n" unicode="n" horiz-adv-x="506" 
d="M36 562h179v-79l8 15q37 64 89 64h74l16 -2q40 -7 54 -33t14 -97v-430h-181v386q0 44 -33 44q-8 0 -17 -3q-22 -8 -22 -44v-383h-180z" />
    <glyph glyph-name="o" unicode="o" 
d="M36 92v385l2 19q8 38 29.5 52t70.5 14h231q36 0 48 -3t26 -15q28 -24 28 -67v-385q0 -91 -87 -91l-14 -1h-233l-14 1q-42 0 -64.5 26.5t-22.5 64.5zM252 132q17 0 27.5 10.5t10.5 30.5v219q0 27 -27 34q-3 1 -10 1q-15 0 -25 -10t-10 -25v-219q0 -41 34 -41z" />
    <glyph glyph-name="p" unicode="p" 
d="M36 -194v756h186v-81l5 12q26 53 42.5 61t92.5 8h9q36 0 54 -10t32 -36.5t14 -77.5v-302l-1 -21q0 -55 -25.5 -84.5t-70.5 -29.5l-39 -1q-32 0 -48.5 5.5t-40.5 27.5l-23 40l-6 2v-269h-181zM227 153q12 -17 31 -17q12 0 21 9q4 4 8 12t4 26v214l-2 11q-9 26 -41 22
q-27 -3 -27 -35v-213q0 -22 6 -29z" />
    <glyph glyph-name="q" unicode="q" 
d="M36 136v302q0 51 13.5 76.5t33 36.5t53.5 11h9q76 0 92.5 -8t42.5 -61l6 -12v81h185v-756h-181v269q-9 -22 -30.5 -42.5t-38.5 -26.5t-48 -6h-33q-48 0 -75.5 29t-27.5 86zM228 145q9 -9 22 -9q18 0 30 17q6 7 6 29v213q0 32 -26 35q-33 4 -42 -22l-1 -11v-214
q0 -27 11 -38z" />
    <glyph glyph-name="r" unicode="r" horiz-adv-x="379" 
d="M36 0v562h181v-86l4 10l8 16q36 69 90 69q17 0 38 -8l11 -5l-19 -204l-133 59v-413h-180z" />
    <glyph glyph-name="s" unicode="s" horiz-adv-x="445" 
d="M36 0v140h192v58h-124q-56 0 -66 50l-2 13v218q0 48 32 70q15 11 30 12h5l24 1h280v-139h-191v-62h123q57 0 68 -55l2 -16v-221l-1 -14q-4 -25 -22 -40t-42 -15h-308z" />
    <glyph glyph-name="t" unicode="t" horiz-adv-x="326" 
d="M4 360v144h58v180h179v-180h81v-144h-81v-187q0 -21 9 -28t39 -7h33v-138h-188l-13 1q-30 5 -42.5 22t-16.5 60l-1 12v265h-57z" />
    <glyph glyph-name="u" unicode="u" horiz-adv-x="506" 
d="M36 138v424h180v-390q0 -38 27 -42q4 -1 7 -1h4q36 0 36 43v390h180v-424q0 -41 -8 -63.5t-27.5 -41t-41.5 -26t-54 -7.5h-172q-61 0 -94 32q-20 19 -28.5 43t-8.5 63z" />
    <glyph glyph-name="v" unicode="v" horiz-adv-x="498" 
d="M29 364v198h181v-249v-25q0 -61 9 -94t30 -62q21 29 30 61.5t9 93.5v26v249h181v-198q0 -103 -22.5 -180t-71.5 -145q-13 -21 -30 -39h-192l-31 39q-48 68 -70.5 145.5t-22.5 179.5z" />
    <glyph glyph-name="w" unicode="w" horiz-adv-x="755" 
d="M36 166v396h179v-370l1 -10l1 -15l3 -15q6 -21 30 -21q10 0 18 4q23 10 23 60v367h173v-367q0 -50 24 -60q8 -4 18 -4q23 0 29 21l3 15l1 15l1 10v370h179v-396q0 -78 -37 -122t-96 -44h-96q-40 0 -68 29t-40 87q-4 16 -4 25l-4 -25q-12 -58 -40.5 -87t-68.5 -29h-96
q-58 0 -95.5 44t-37.5 122z" />
    <glyph glyph-name="x" unicode="x" horiz-adv-x="511" 
d="M36 396v166h180v-146l1 -16q7 -50 38 -61q32 11 38 61l1 16v146h181v-166l-2 -21q-12 -59 -74 -81l-13 -4l10 -3q78 -23 78 -92v-195h-181v149q0 22 -8 38q-11 26 -30 32q-18 -6 -27.5 -27.5t-9.5 -42.5v-149h-181v195q0 69 78 92l10 3l-14 4q-61 21 -73 81z" />
    <glyph glyph-name="y" unicode="y" horiz-adv-x="490" 
d="M29 391v171h182v-236v-50l1 -28q3 -37 10 -58t23 -46q17 27 25.5 56.5t8.5 75.5l-1 50v236h183v-171l-1 -25q0 -60 -3.5 -91.5t-11.5 -65.5q-18 -73 -38 -114t-56 -79l-16 -16v-194h-180l3 194l-17 16q-43 47 -68.5 110t-38.5 163q-4 45 -4.5 65.5t-0.5 36.5z" />
    <glyph glyph-name="z" unicode="z" horiz-adv-x="384" 
d="M13 0l133 420h-112v142h340l-132 -426h128v-136h-357z" />
    <glyph glyph-name="braceleft" unicode="{" horiz-adv-x="354" 
d="M34 360q29 0 47.5 20.5t18.5 51.5v315q0 43 25 68t69 25h126v-75h-13q-32 0 -44 -11t-12 -40v-264q0 -27 -16 -50t-42 -34l-27 -6l27 -6q58 -25 58 -84v-264q0 -28 12.5 -39.5t43.5 -11.5h13v-75h-126q-45 0 -69.5 24.5t-24.5 68.5v315q0 31 -18.5 51.5t-47.5 20.5z" />
    <glyph glyph-name="braceright" unicode="}" horiz-adv-x="354" 
d="M34 -120v75h13q32 0 44 11t12 40v264q0 27 16 50t42 34l27 6l-27 6q-58 25 -58 84v264q0 28 -12.5 39.5t-43.5 11.5h-13v75h126q45 0 69.5 -24.5t24.5 -68.5v-315q0 -31 18.5 -51.5t47.5 -20.5q-29 0 -47.5 -20.5t-18.5 -51.5v-315q0 -43 -25 -68t-69 -25h-126z" />
    <glyph glyph-name="asciitilde" unicode="~" horiz-adv-x="506" 
d="M34 271l1 25q7 78 39.5 117.5t85.5 39.5q15 0 28.5 -3t34.5 -10l83 -32l23 -8q9 -3 16 -3q19 0 29 29q4 12 4 19l1 9h93l-1 -25q-14 -156 -124 -156q-27 0 -64 13l-83 31l-23 8q-8 4 -17 4q-17 0 -28 -30q-4 -10 -4 -18l-1 -10h-93z" />
    <glyph glyph-name="Adieresis" unicode="&#xc4;" horiz-adv-x="537" 
d="M36 0v615q0 33 5 50t19 30q25 25 64 25h289q40 0 65 -25q13 -13 18 -29.5t5 -50.5v-615h-194v158h-77v-158h-194zM62 739v120h169v-120h-169zM302 739v120h170v-120h-170zM307 311v209q0 48 -38 48q-39 0 -39 -48v-209h77z" />
    <glyph glyph-name="Aring" unicode="&#xc5;" horiz-adv-x="537" 
d="M36 0v615q0 33 5 50t19 30q25 25 64 25h289q40 0 65 -25q13 -13 18 -29.5t5 -50.5v-615h-194v158h-77v-158h-194zM151 812q0 28 23.5 47.5t49.5 22t31 2.5h12q16 0 24 -1q17 0 29.5 -3.5t23.5 -10.5q39 -21 39 -58q0 -20 -15.5 -36.5t-33.5 -25t-46 -8.5h-42
q-45 0 -70 21t-25 50zM307 311v209q0 48 -38 48q-39 0 -39 -48v-209h77zM245 801l6 -2h8l8 -1l8 1h8l7 2q12 4 15 7q5 5 0 9q-3 4 -16 8l-6 1l-8 1l-8 1l-7 -1l-8 -1l-6 -1q-19 -5 -19 -12q1 -4 4 -6q4 -3 14 -6z" />
    <glyph glyph-name="Ccedilla" unicode="&#xc7;" horiz-adv-x="367" 
d="M37 134v452l3 32q10 56 38 79t82 23h185v-172h-74q-26 0 -33 -24q-2 -3 -2 -12v-305l1 -8q5 -27 33 -27h74v-172h-184q-54 0 -81.5 23t-38.5 79zM101 -171l37 138h154l-63 -138h-128z" />
    <glyph glyph-name="Eacute" unicode="&#xc9;" horiz-adv-x="460" 
d="M36 148v419l2 32q8 68 36 94.5t89 26.5h261v-158h-192v-123h191v-163h-191v-114h190v-162h-256q-130 0 -130 148zM129 756l66 125h173l-120 -125h-119z" />
    <glyph glyph-name="Ntilde" unicode="&#xd1;" horiz-adv-x="540" 
d="M14 720h201q5 -16 9 -31t4 -33l1 -16l1 -12l5 16q32 76 98 76h81q47 0 68.5 -29t21.5 -94v-597h-195v499q0 22 -3 30.5t-13 15.5t-22 7q-39 0 -39 -55v-497h-195v590q0 53 -17 112zM73 763l2 17q23 102 114 102q15 0 32 -3l53 -16l21 -8l6 -2l8 -2q18 -5 34 -5
q25 0 33 21l92 1l-1 -10q-18 -101 -115 -101h-15q-7 1 -10 1q-12 2 -20.5 4t-27.5 9l-4 2l-27 10q-22 9 -30 10.5t-11 1.5h-7q-26 0 -33 -26l-2 -6h-92z" />
    <glyph glyph-name="Odieresis" unicode="&#xd6;" horiz-adv-x="535" 
d="M29 266v183l1 30q0 134 33 182.5t123 56.5l34 2h96l33 -2q71 -6 103 -34t48 -100q4 -18 5 -41t1 -94v-183v-31q0 -72 -13 -110.5t-44.5 -71t-67 -43t-113.5 -10.5h-50q-106 0 -158 91q-15 27 -21 51q-9 37 -9 106zM59 751v120h169v-120h-169zM299 751v120h170v-120h-170z
M268 157q20 0 29 13.5t9 48.5v310q0 43 -26 49q-4 1 -7 1h-7q-36 0 -36 -50v-310q0 -34 9 -48t29 -14z" />
    <glyph glyph-name="Udieresis" unicode="&#xdc;" horiz-adv-x="541" 
d="M36 93v627h195v-514q0 -19 1.5 -29t13.5 -18l10 -5q11 -3 18 -3q36 0 36 58v511h195v-627l-1 -10l-1 -21q0 -33 -18.5 -47.5t-61.5 -14.5h-306q-43 0 -61.5 14.5t-18.5 47.5l-1 22v9zM61 751v120h169v-120h-169zM311 751v120h170v-120h-170z" />
    <glyph glyph-name="aacute" unicode="&#xe1;" 
d="M36 116v342q0 31 14 56q29 48 82 48h68q26 0 38 -7t31 -34l14 -21l6 -11v73h182v-562h-179v77l-7 -13l-17 -26q-17 -22 -31 -30t-37 -8h-54q-53 0 -81.5 30.5t-28.5 85.5zM152 598l66 125h173l-120 -125h-119zM222 155q9 -23 32 -23q12 0 24.5 10t12.5 35v209
q0 41 -38 41q-35 0 -35 -46v-202q0 -10 4 -24z" />
    <glyph glyph-name="agrave" unicode="&#xe0;" 
d="M36 116v342q0 31 14 56q29 48 82 48h68q26 0 38 -7t31 -34l14 -21l6 -11v73h182v-562h-179v77l-7 -13l-17 -26q-17 -22 -31 -30t-37 -8h-54q-53 0 -81.5 30.5t-28.5 85.5zM117 721h175l62 -123h-116zM222 155q9 -23 32 -23q12 0 24.5 10t12.5 35v209q0 41 -38 41
q-35 0 -35 -46v-202q0 -10 4 -24z" />
    <glyph glyph-name="acircumflex" unicode="&#xe2;" 
d="M36 116v342q0 31 14 56q29 48 82 48h68q26 0 38 -7t31 -34l14 -21l6 -11v73h182v-562h-179v77l-7 -13l-17 -26q-17 -22 -31 -30t-37 -8h-54q-53 0 -81.5 30.5t-28.5 85.5zM81 598l69 124h209l66 -124h-145l-27 55l-31 -55h-141zM222 155q9 -23 32 -23q12 0 24.5 10
t12.5 35v209q0 41 -38 41q-35 0 -35 -46v-202q0 -10 4 -24z" />
    <glyph glyph-name="adieresis" unicode="&#xe4;" 
d="M36 116v342q0 31 14 56q29 48 82 48h68q26 0 38 -7t32 -34l13 -21l6 -11v73h182v-562h-179v77l-7 -13l-17 -26q-17 -22 -31 -30t-37 -8h-54q-53 0 -81.5 30.5t-28.5 85.5zM74 597v123h154v-123h-154zM293 596v124h154v-124h-154zM222 155q9 -23 32 -23q12 0 24.5 10
t12.5 35v209q0 41 -38 41q-35 0 -35 -46v-202q0 -15 4 -24z" />
    <glyph glyph-name="atilde" unicode="&#xe3;" 
d="M36 116v342q0 31 14 56q29 48 82 48h68q26 0 38 -7t31 -34l14 -21l6 -11v73h182v-562h-179v77l-7 -13l-17 -26q-17 -22 -31 -30t-37 -8h-54q-53 0 -81.5 30.5t-28.5 85.5zM56 605l2 17q23 102 114 102q15 0 32 -3l53 -16l21 -8l6 -2l8 -2q18 -5 34 -5q25 0 33 21l92 1
l-1 -10q-18 -101 -115 -101h-15q-7 1 -10 1q-12 2 -20.5 4t-27.5 9l-4 2l-27 10q-22 9 -30 10.5t-11 1.5h-7q-26 0 -33 -26l-2 -6h-92zM222 155q9 -23 32 -23q12 0 24.5 10t12.5 35v209q0 41 -38 41q-35 0 -35 -46v-202q0 -10 4 -24z" />
    <glyph glyph-name="aring" unicode="&#xe5;" 
d="M36 116v342q0 31 14 56q29 48 82 48h68q26 0 38 -7t31 -34l14 -21l6 -11v73h182v-562h-179v77l-7 -13l-17 -26q-17 -22 -31 -30t-37 -8h-54q-53 0 -81.5 30.5t-28.5 85.5zM137 653q0 27 23 47t69 25h47q34 -4 53 -14q40 -21 40 -58q0 -22 -15 -37.5t-33.5 -24t-46.5 -8.5
h-42q-45 0 -70 21t-25 49zM222 155q9 -23 32 -23q12 0 24.5 10t12.5 35v209q0 41 -38 41q-35 0 -35 -46v-202q0 -10 4 -24zM231 642l6 -1l7 -1h9h8l8 1l6 1q11 3 16 8q4 4 0 9q-5 5 -17 8l-6 1l-8 1h-7h-8l-8 -1l-6 -1q-18 -5 -18 -13q0 -7 18 -12z" />
    <glyph glyph-name="ccedilla" unicode="&#xe7;" horiz-adv-x="335" 
d="M37 79v392q0 91 100 91h182v-142h-61q-25 0 -33 -7t-8 -32v-210q0 -20 9.5 -26.5t39.5 -6.5h55v-138h-198q-26 0 -38 3t-24 13t-18 24.5t-6 38.5zM75 -171l38 138h153l-62 -138h-129z" />
    <glyph glyph-name="eacute" unicode="&#xe9;" horiz-adv-x="490" 
d="M36 109v360q0 51 23 72t80 21h220q33 0 49 -6t29 -22q9 -11 13 -25.5t4 -40.5v-252h-240v-46q0 -29 41 -29h197v-141h-309h-40h-4q-32 4 -47.5 29.5t-15.5 79.5zM144 598l66 125h173l-120 -125h-119zM283 316v73q0 20 -12 31t-30 7q-26 -7 -26 -37v-74h68z" />
    <glyph glyph-name="egrave" unicode="&#xe8;" horiz-adv-x="490" 
d="M36 109v360q0 51 23 72t80 21h220q33 0 49 -6t29 -22q9 -11 13 -25.5t4 -40.5v-252h-240v-46q0 -29 41 -29h197v-141h-309h-40h-4q-32 4 -47.5 29.5t-15.5 79.5zM109 721h175l62 -123h-116zM283 316v73q0 20 -12 31t-30 7q-26 -7 -26 -37v-74h68z" />
    <glyph glyph-name="ecircumflex" unicode="&#xea;" horiz-adv-x="490" 
d="M36 109v360q0 51 23 72t80 21h220q33 0 49 -6t29 -22q9 -11 13 -25.5t4 -40.5v-252h-240v-46q0 -29 41 -29h197v-141h-309h-40h-4q-32 4 -47.5 29.5t-15.5 79.5zM73 598l69 124h209l66 -124h-145l-27 55l-31 -55h-141zM283 316v73q0 20 -12 31t-30 7q-26 -7 -26 -37v-74
h68z" />
    <glyph glyph-name="edieresis" unicode="&#xeb;" horiz-adv-x="490" 
d="M36 109v360q0 51 23 72t80 21h220q33 0 49 -6t29 -22q9 -11 13 -25.5t4 -40.5v-252h-240v-46q0 -29 41 -29h197v-141h-309h-40h-4q-32 4 -47.5 29.5t-15.5 79.5zM59 601v123h154v-123h-154zM278 600v124h154v-124h-154zM283 316v73q0 20 -12 31t-30 7q-26 -7 -26 -37v-74
h68z" />
    <glyph glyph-name="iacute" unicode="&#xed;" horiz-adv-x="252" 
d="M36 0v562h180v-562h-180zM25 598l66 125h173l-120 -125h-119z" />
    <glyph glyph-name="igrave" unicode="&#xec;" horiz-adv-x="252" 
d="M36 0v562h180v-562h-180zM-10 721h175l62 -123h-116z" />
    <glyph glyph-name="icircumflex" unicode="&#xee;" horiz-adv-x="252" 
d="M36 0v562h180v-562h-180zM-46 598l69 124h209l66 -124h-145l-27 55l-31 -55h-141z" />
    <glyph glyph-name="idieresis" unicode="&#xef;" horiz-adv-x="252" 
d="M36 0v562h180v-562h-180zM-60 601v123h154v-123h-154zM159 600v124h154v-124h-154z" />
    <glyph glyph-name="ntilde" unicode="&#xf1;" horiz-adv-x="506" 
d="M36 562h179v-79l8 15q37 64 89 64h74l16 -2q40 -7 54 -33t14 -97v-430h-181v386q0 44 -33 44q-8 0 -17 -3q-22 -8 -22 -44v-383h-180zM56 605l2 17q23 102 114 102q15 0 32 -3l53 -16l21 -8l6 -2l8 -2q18 -5 34 -5q25 0 33 21l92 1l-1 -10q-18 -101 -115 -101h-15
q-7 1 -10 1q-12 2 -20.5 4t-27.5 9l-4 2l-27 10q-22 9 -30 10.5t-11 1.5h-7q-26 0 -33 -26l-2 -6h-92z" />
    <glyph glyph-name="oacute" unicode="&#xf3;" 
d="M36 92v385l2 19q8 38 29.5 52t70.5 14h231q36 0 48 -3t26 -15q28 -24 28 -67v-385q0 -91 -87 -91l-14 -1h-233l-14 1q-87 0 -87 91zM152 598l66 125h173l-120 -125h-119zM254 132q36 0 36 41v219q0 27 -27 34q-3 1 -10 1q-15 0 -25 -10t-10 -25v-219q0 -41 36 -41z" />
    <glyph glyph-name="ograve" unicode="&#xf2;" 
d="M36 92v385l2 19q8 38 29.5 52t70.5 14h231q36 0 48 -3t26 -15q28 -24 28 -67v-385q0 -91 -87 -91l-14 -1h-233l-14 1q-87 0 -87 91zM117 721h175l62 -123h-116zM254 132q36 0 36 41v219q0 27 -27 34q-3 1 -10 1q-15 0 -25 -10t-10 -25v-219q0 -41 36 -41z" />
    <glyph glyph-name="ocircumflex" unicode="&#xf4;" 
d="M36 92v385l2 19q8 38 29.5 52t70.5 14h231q36 0 48 -3t26 -15q28 -24 28 -67v-385q0 -91 -87 -91l-14 -1h-233l-14 1q-87 0 -87 91zM81 598l69 124h209l66 -124h-145l-27 55l-31 -55h-141zM254 132q36 0 36 41v219q0 27 -27 34q-3 1 -10 1q-15 0 -25 -10t-10 -25v-219
q0 -41 36 -41z" />
    <glyph glyph-name="odieresis" unicode="&#xf6;" 
d="M36 92v385l2 19q8 38 29.5 52t70.5 14h231q36 0 48 -3t26 -15q28 -24 28 -67v-385q0 -91 -87 -91l-14 -1h-233l-14 1q-87 0 -87 91zM67 597v123h154v-123h-154zM286 596v124h154v-124h-154zM254 132q36 0 36 41v219q0 27 -27 34q-3 1 -10 1q-15 0 -25 -10t-10 -25v-219
q0 -41 36 -41z" />
    <glyph glyph-name="otilde" unicode="&#xf5;" 
d="M36 92v385l2 19q8 38 29.5 52t70.5 14h231q36 0 48 -3t26 -15q28 -24 28 -67v-385q0 -91 -87 -91l-14 -1h-233l-14 1q-87 0 -87 91zM56 605l2 17q23 102 114 102q15 0 32 -3l53 -16l21 -8l6 -2l8 -2q18 -5 34 -5q25 0 33 21l92 1l-1 -10q-18 -101 -115 -101h-15
q-7 1 -10 1q-12 2 -20.5 4t-27.5 9l-4 2l-27 10q-22 9 -30 10.5t-11 1.5h-7q-26 0 -33 -26l-2 -6h-92zM254 132q36 0 36 41v219q0 27 -27 34q-3 1 -10 1q-15 0 -25 -10t-10 -25v-219q0 -41 36 -41z" />
    <glyph glyph-name="uacute" unicode="&#xfa;" horiz-adv-x="506" 
d="M36 138v424h180v-390q0 -38 27 -42q4 -1 7 -1h4q36 0 36 43v390h180v-424q0 -41 -8 -63.5t-27.5 -41t-41.5 -26t-54 -7.5h-172q-61 0 -94 32q-20 19 -28.5 43t-8.5 63zM152 598l66 125h173l-120 -125h-119z" />
    <glyph glyph-name="ugrave" unicode="&#xf9;" horiz-adv-x="506" 
d="M36 138v424h180v-390q0 -38 27 -42q4 -1 7 -1h4q36 0 36 43v390h180v-424q0 -41 -8 -63.5t-27.5 -41t-41.5 -26t-54 -7.5h-172q-61 0 -94 32q-20 19 -28.5 43t-8.5 63zM117 721h175l62 -123h-116z" />
    <glyph glyph-name="ucircumflex" unicode="&#xfb;" horiz-adv-x="506" 
d="M36 138v424h180v-390q0 -38 27 -42q4 -1 7 -1h4q36 0 36 43v390h180v-424q0 -41 -8 -63.5t-27.5 -41t-41.5 -26t-54 -7.5h-172q-61 0 -94 32q-20 19 -28.5 43t-8.5 63zM81 598l69 124h209l66 -124h-145l-27 55l-31 -55h-141z" />
    <glyph glyph-name="udieresis" unicode="&#xfc;" horiz-adv-x="506" 
d="M36 138v424h180v-390q0 -38 27 -42q4 -1 7 -1h4q36 0 36 43v390h180v-424q0 -41 -8 -63.5t-27.5 -41t-41.5 -26t-54 -7.5h-172q-61 0 -94 32q-20 19 -28.5 43t-8.5 63zM68 597v123h153v-123h-153zM286 596v124h155v-124h-155z" />
    <glyph glyph-name="cent" unicode="&#xa2;" horiz-adv-x="334" 
d="M36 79v392q0 91 100 91l32 -2v95h70l1 -95l79 2v-142h-61q-25 0 -33 -7t-8 -32v-210q0 -20 9.5 -26.5t39.5 -6.5h55v-138h-83v-87l-70 -1v88h-45q-26 0 -38 3t-24 13t-18 24.5t-6 38.5z" />
    <glyph glyph-name="sterling" unicode="&#xa3;" horiz-adv-x="485" 
d="M22 0v89l12 5q33 16 45 39.5t12 76.5v100h-38h-19h-11v74l5 -1h5h17h41v204l3 28q19 95 111 104l17 1h158l24 1l13 1h12h6l13 2v-169l-12 3l-41 4h-26l-17 -2q-45 -7 -58.5 -25t-13.5 -71v-79h64h17h9l7 1h8v-79l-8 1l-7 1h-8h-17h-67v-40v-36q-2 -25 -13 -47t-35 -47
l-15 -16l-8 -8l10 4l21 7q25 9 44.5 14t41.5 8.5t46 5t50 1.5h29v-155h-427z" />
    <glyph glyph-name="section" unicode="&#xa7;" horiz-adv-x="519" 
d="M36 -132v136l170 -44l1 -7q3 -20 40 -20l31 -1l11 2q17 5 19 17v8q0 8 -7.5 14.5t-24.5 10.5l-160 37q-46 10 -62 30t-16 65v241q0 30 12 46t30 16q6 0 9 -1q-13 5 -21 13q-15 15 -15 43v168q0 41 21 61t67 20h261q81 0 81 -76v-141l-173 44l-1 10q0 18 -27 18h-43l-9 -1
q-20 -6 -20 -17v-9q-2 -20 32 -27l166 -37q40 -10 57 -31.5t17 -63.5v-258q0 -30 -20 -41q-9 -5 -22 -5q-9 0 -13 2q40 -10 40 -61v-154q0 -39 -24 -63t-66 -24h-258q-36 0 -59.5 24t-23.5 56zM230 136l51 -5q18 0 26.5 7.5t8.5 28.5v167q0 32 -28 36l-47 4q-39 0 -39 -27
v-169q0 -39 28 -42z" />
    <glyph glyph-name="bullet" unicode="&#x2022;" horiz-adv-x="351" 
d="M34 360q0 59 42 100t100 41q57 0 99 -41t42 -100q0 -60 -41 -100.5t-100 -40.5q-60 0 -101 41t-41 100z" />
    <glyph glyph-name="paragraph" unicode="&#xb6;" horiz-adv-x="614" 
d="M245 720h335v-72h-335q-58 0 -99 -42t-41 -101q0 -57 41 -98t98 -41h63v228h78v-594h-78v294h-62q-87 0 -149 62t-62 151q0 88 61.5 150.5t149.5 62.5zM445 0v594h78v-594h-78z" />
    <glyph glyph-name="germandbls" unicode="&#xdf;" horiz-adv-x="494" 
d="M36 0v604q0 57 28.5 86.5t80.5 29.5h213q26 0 38 -2t21 -8q24 -14 33.5 -33t9.5 -55l1 -30v-4q0 -37 -34 -101l-11 -19q-9 -17 -9 -34q0 -29 23 -72l11 -20q22 -38 30.5 -72t8.5 -87l-3 -39q-9 -76 -39 -110t-84 -34h-112v146l3 -2l3 -1l7 -1q26 0 30 26l3 14v6v24
q0 10 -2 24.5t-4 20.5q-7 17 -10 27l-9 25l-2 6l-11 29l-3 9q-6 17 -6 32q0 27 23 76.5t23 75.5q0 19 -1 27q-6 32 -31 32q-9 0 -22.5 -6.5t-13.5 -33.5l-2 -18v-10v-528h-181z" />
    <glyph glyph-name="acute" unicode="&#xb4;" horiz-adv-x="275" 
d="M36 598l66 125h173l-120 -125h-119z" />
    <glyph glyph-name="dieresis" unicode="&#xa8;" horiz-adv-x="373" 
d="M0 601v123h154v-123h-154zM219 600v124h154v-124h-154z" />
    <glyph glyph-name="AE" unicode="&#xc6;" horiz-adv-x="726" 
d="M36 0v621q0 44 15.5 69t41.5 31l28 -1h569v-158h-192v-128h188v-151h-191v-127h190v-156h-373v151h-81v-151h-195zM313 290v220q0 55 -36 55q-8 0 -17 -3l-9 -4q-10 -7 -14.5 -18t-4.5 -30v-220h81z" />
    <glyph glyph-name="Oslash" unicode="&#xd8;" horiz-adv-x="544" 
d="M-11 -22l73 115q-16 31 -22.5 59t-6.5 78l-1 36v183v31q0 134 33 182t123 56l35 2h96q49 0 78.5 -8t50.5 -25l58 94l49 -32l-71 -108l5 -12l3 -9q11 -31 14 -61.5t3 -109.5v-183v-30q0 -73 -13 -111t-45 -72q-28 -29 -66 -43.5t-95 -14.5q-27 0 -74.5 6t-68 12t-37.5 20
l-4 4l-5 6l-66 -98zM271 157q20 0 29 13.5t9 48.5v310q0 50 -38 50t-38 -50v-310q0 -34 9 -48t29 -14z" />
    <glyph glyph-name="yen" unicode="&#xa5;" horiz-adv-x="524" 
d="M29 444v276h193v-287q0 -43 9.5 -68.5t30.5 -42.5q20 16 29.5 42t9.5 69v287h194v-276q0 -88 -52 -166l-5 -8l-5 -7h62v-50h-116l-21 -20l1 -18h136v-48l-135 1l-2 -128h-192l2 128h-139l1 47h138l-2 18l-19 20h-118v50h65q-25 25 -40.5 60.5t-22.5 88.5z" />
    <glyph glyph-name="product" unicode="&#x220f;" horiz-adv-x="539" 
d="M36 0v720h328q140 0 140 -121v-102l-2 -25q-5 -48 -26 -71t-68 -33l-17 -2l17 -3q53 -11 76 -39.5t23 -83.5v-155q0 -29 3 -41t16 -35l6 -9h-207q-16 22 -20 62v14v149l-1 11q-7 34 -44 34h-29v-270h-195zM254 434q32 0 41 17.5t9 76.5q-3 37 -53 37h-18v-131h21zM80 862
h141l31 -56l27 56h145l-66 -124h-209z" />
    <glyph glyph-name="pi" unicode="&#x3c0;" horiz-adv-x="379" 
d="M36 0v562h181v-86l4 10l8 16q36 69 90 69q17 0 38 -8l11 -5l-19 -204l-133 59v-413h-180zM20 722h141l31 -56l27 56h145l-66 -124h-209z" />
    <glyph glyph-name="ordfeminine" unicode="&#xaa;" horiz-adv-x="450" 
d="M43 325h373v-87h-373v87zM320 663v57h95l1 -348h-96v60l-4 -7q-15 -28 -45.5 -45t-69.5 -17q-8 0 -18.5 1.5t-16.5 2.5q-58 11 -95.5 59.5t-37.5 114.5v16q0 5 5 29q11 52 42 89q23 27 55 41.5t65 14.5q39 0 71 -17.5t49 -50.5zM209 449q6 -2 19 -2t19 2q60 13 73 78
q2 6 2 10v10q0 13 -2 20q-7 37 -32 59t-61 22q-35 0 -60.5 -21.5t-32.5 -59.5l-2 -20q0 -39 21 -65.5t56 -32.5z" />
    <glyph glyph-name="ordmasculine" unicode="&#xba;" horiz-adv-x="450" 
d="M40 238v87h371v-87h-371zM34 547q0 10 1 20q0 1 3 20q14 66 65 107t120 41q16 0 25.5 -2t13.5 -2q58 -11 98 -49t52 -94q4 -19 4 -41q0 -78 -55.5 -132.5t-135.5 -54.5q-17 0 -37 3q-68 13 -111 64t-43 120zM131 528q13 -65 74 -78q14 -2 21 -2q34 0 60 22t33 58
q2 14 2 20q0 36 -21 62.5t-56 34.5q-6 1 -19 1t-19 -1q-62 -14 -75 -79l-2 -19z" />
    <glyph glyph-name="ae" unicode="&#xe6;" horiz-adv-x="733" 
d="M36 104v362l2 19q8 38 29.5 57.5t51.5 19.5h74q30 0 41.5 -5t31.5 -27q5 -6 12 -17t10 -19v68h331l14 -1q31 -3 45 -18t19 -52v-13v-261h-230v-48q0 -12 12 -20.5t36 -8.5h181v-140h-407v75l-6 -12q-20 -36 -38.5 -49.5t-49.5 -13.5h-64q-31 0 -45.5 7t-32 32.5
t-17.5 64.5zM262 133q23 7 23 41v213q0 42 -33 42q-3 0 -13 -2q-24 -7 -24 -37v-219q0 -20 9 -30t25 -10q5 0 13 2zM527 317v75q0 18 -10.5 28.5t-25.5 10.5q-10 0 -22 -9t-12 -30v-75h70z" />
    <glyph glyph-name="oslash" unicode="&#xf8;" horiz-adv-x="511" 
d="M4 -3l41 53l-2 6l-2 6q-5 17 -5 30v385l2 19q8 38 29.5 52t70.5 14h232q33 0 44.5 -2t19.5 -9l37 54l36 -29l-46 -55l3 -5l2 -5q5 -15 5 -34v-385q0 -91 -87 -91l-14 -1h-232l-15 1q-16 0 -23.5 2t-17.5 8l-3 2l-3 2l-36 -43zM254 132q36 0 36 41v219q0 27 -27 34
q-17 4 -31 -6t-14 -28v-219q0 -41 36 -41z" />
    <glyph glyph-name="questiondown" unicode="&#xbf;" horiz-adv-x="455" 
d="M208 720h171v-171h-170zM36 98v191q0 49 17 72t63 37l8 2l14 4l8 2l25 9q35 13 35 48v38h174v-72l-2 -15q-7 -42 -51 -68l-21 -13l-32 -18l-5 -2q-7 -3 -19 -16t-18 -30.5t-6 -42.5v-94h60v88h147v-135q0 -29 -14 -51q-24 -32 -68 -32h-223q-44 0 -64 18t-27 65z" />
    <glyph glyph-name="exclamdown" unicode="&#xa1;" horiz-adv-x="260" 
d="M50 549v171h174v-171h-174zM50 0v501h173v-501h-173z" />
    <glyph glyph-name="radical" unicode="&#x221a;" horiz-adv-x="342" 
d="M36 79v392q0 91 100 91h182v-142h-61q-25 0 -33 -7t-8 -32v-210q0 -20 9.5 -26.5t39.5 -6.5h55v-138h-198q-26 0 -38 3t-24 13t-18 24.5t-6 38.5zM0 722h141l31 -56l27 56h145l-66 -124h-209z" />
    <glyph glyph-name="florin" unicode="&#x192;" horiz-adv-x="398" 
d="M-27 -166l16 130l5 -1l12 -1q42 0 47 42l48 387h-48l17 143h49l8 58q10 79 33 113t70 43h45l114 1l-17 -131h-18q-43 0 -47 -38l-6 -47h61l-18 -141h-62l-49 -401q-10 -82 -32 -115t-70 -41h-45z" />
    <glyph glyph-name="guillemotleft" unicode="&#xab;" horiz-adv-x="435" 
d="M196 283l78 279h145l-78 -279l78 -283h-143zM16 283l78 279h145l-78 -279l78 -283h-143z" />
    <glyph glyph-name="guillemotright" unicode="&#xbb;" horiz-adv-x="445" 
d="M16 0l78 289l-77 273h142l80 -273l-77 -289h-146zM205 0l78 289l-77 273h142l81 -273l-78 -289h-146z" />
    <glyph glyph-name="ellipsis" unicode="&#x2026;" horiz-adv-x="799" 
d="M37 83q0 40 28 68t68 28t68 -28t28 -68q0 -41 -28 -68.5t-68 -27.5t-68 28t-28 68zM303 83q0 40 28 68t68 28t68.5 -28.5t28.5 -67.5q0 -41 -28.5 -68.5t-68.5 -27.5t-68 28t-28 68zM570 83q0 40 28 68t68 28t68 -28t28 -68t-28 -68t-68 -28t-68 28t-28 68z" />
    <glyph glyph-name="nonbreakingspace" unicode="&#xa0;" horiz-adv-x="500" 
 />
    <glyph glyph-name="Agrave" unicode="&#xc0;" horiz-adv-x="537" 
d="M36 0v615q0 33 5 50t19 30q25 25 64 25h289q40 0 65 -25q13 -13 18 -29.5t5 -50.5v-615h-194v158h-77v-158h-194zM132 879h175l62 -123h-116zM307 311v209q0 48 -38 48q-39 0 -39 -48v-209h77z" />
    <glyph glyph-name="Atilde" unicode="&#xc3;" horiz-adv-x="537" 
d="M36 0v615q0 33 5 50t19 30q25 25 64 25h289q40 0 65 -25q13 -13 18 -29.5t5 -50.5v-615h-194v158h-77v-158h-194zM71 763l2 17q23 102 114 102q15 0 32 -3l53 -16l21 -8l6 -2l8 -2q18 -5 34 -5q25 0 33 21l92 1l-1 -10q-18 -101 -115 -101h-15q-7 1 -10 1q-12 2 -20.5 4
t-27.5 9l-4 2l-27 10q-22 9 -30 10.5t-11 1.5h-7q-26 0 -33 -26l-2 -6h-92zM307 311v209q0 48 -38 48q-39 0 -39 -48v-209h77z" />
    <glyph glyph-name="Otilde" unicode="&#xd5;" horiz-adv-x="535" 
d="M29 266v183l1 30q0 134 33 182.5t123 56.5l34 2h96l33 -2q71 -6 103 -34t48 -100q4 -18 5 -41t1 -94v-183v-31q0 -72 -13 -110.5t-44.5 -71t-67 -43t-113.5 -10.5h-50q-85 0 -135 57q-53 61 -53 174zM70 763l2 17q23 102 114 102q15 0 32 -3l53 -16l21 -8l6 -2l8 -2
q18 -5 34 -5q25 0 33 21l92 1l-1 -10q-18 -101 -115 -101h-15q-7 1 -10 1q-12 2 -20.5 4t-27.5 9l-4 2l-27 10q-22 9 -30 10.5t-11 1.5h-7q-26 0 -33 -26l-2 -6h-92zM268 157q20 0 29 13.5t9 48.5v310q0 43 -26 49q-4 1 -7 1h-7q-36 0 -36 -50v-310q0 -34 9 -48t29 -14z" />
    <glyph glyph-name="OE" unicode="&#x152;" horiz-adv-x="699" 
d="M29 264v250l3 45q10 85 35 118.5t81 41.5l18 1h497v-158h-194v-127h193v-153h-195v-126h193v-156h-508q-61 0 -91 33t-30 107l-1 33l-1 68v23zM210 192q8 -35 36 -35q10 0 18 4q23 9 23 45v310q0 47 -37 47q-5 0 -13 -2q-28 -9 -28 -45v-312z" />
    <glyph glyph-name="oe" unicode="&#x153;" horiz-adv-x="736" 
d="M36 90v395q0 40 30 62q13 11 34 14h5l26 1h489q38 0 56 -16t23 -57l1 -13v-258h-234v-45q0 -20 7.5 -26.5t28.5 -6.5h198v-140h-558q-106 0 -106 90zM245 132q42 -8 42 40v218l-1 11q-6 29 -33 29q-9 0 -14 -1q-25 -6 -25 -40v-219q0 -33 31 -38zM528 317v81q0 25 -28 33
q-15 3 -28 -4q-18 -11 -18 -32v-78h74z" />
    <glyph glyph-name="endash" unicode="&#x2013;" horiz-adv-x="514" 
d="M29 170v116h456v-116h-456z" />
    <glyph glyph-name="emdash" unicode="&#x2014;" horiz-adv-x="513" 
d="M40 204v173h433v-173h-433z" />
    <glyph glyph-name="quotedblleft" unicode="&#x201c;" horiz-adv-x="497" 
d="M0 468l149 251h124l-97 -251h-176zM202 468l149 251h124l-97 -251h-176z" />
    <glyph glyph-name="quotedblright" unicode="&#x201d;" horiz-adv-x="497" 
d="M0 468l97 251h176l-149 -251h-124zM202 468l97 251h176l-149 -251h-124z" />
    <glyph glyph-name="quoteleft" unicode="&#x2018;" horiz-adv-x="295" 
d="M0 468l149 251h124l-97 -251h-176z" />
    <glyph glyph-name="quoteright" unicode="&#x2019;" horiz-adv-x="295" 
d="M0 468l97 251h176l-149 -251h-124z" />
    <glyph glyph-name="lozenge" unicode="&#x25ca;" horiz-adv-x="366" 
d="M36 134v452l3 32q10 56 38 79t82 23h185v-172h-74q-26 0 -33 -24q-2 -3 -2 -12v-305l1 -8q5 -27 33 -27h74v-172h-184q-54 0 -81.5 23t-38.5 79zM10 872h141l31 -56l27 56h145l-66 -124h-209z" />
    <glyph glyph-name="ydieresis" unicode="&#xff;" horiz-adv-x="490" 
d="M29 391v171h182v-236v-50l1 -28q3 -37 10 -58t23 -46q17 27 25.5 56.5t8.5 75.5l-1 50v236h183v-171l-1 -25q0 -60 -3.5 -91.5t-11.5 -65.5q-18 -73 -38 -114t-56 -79l-16 -16v-194h-180l3 194l-17 16q-43 47 -68.5 110t-38.5 163q-4 45 -4.5 65.5t-0.5 36.5zM59 601v123
h154v-123h-154zM278 600v124h154v-124h-154z" />
    <glyph glyph-name="Ydieresis" unicode="&#x178;" horiz-adv-x="524" 
d="M29 444v276h193v-287q0 -43 9.5 -68.5t30.5 -42.5q20 16 29.5 42t9.5 69v287h194v-276l-2 -35q-8 -60 -36 -109t-82 -94l-17 -13v-193h-192v193l-17 13q-54 45 -81.5 92.5t-36.5 110.5zM76 759v123h154v-123h-154zM295 758v124h154v-124h-154z" />
    <glyph glyph-name="fraction" unicode="&#x2215;" horiz-adv-x="244" 
d="M-115 0l422 749l52 -29l-422 -747z" />
    <glyph glyph-name="guilsinglleft" unicode="&#x2039;" horiz-adv-x="282" 
d="M17 283l87 279h161l-87 -279l87 -283h-159z" />
    <glyph glyph-name="guilsinglright" unicode="&#x203a;" horiz-adv-x="282" 
d="M17 0l87 289l-86 273h158l89 -273l-86 -289h-162z" />
    <glyph glyph-name="periodcentered" unicode="&#xb7;" horiz-adv-x="244" 
d="M36 194v173h172v-173h-172z" />
    <glyph glyph-name="periodcentered" unicode="&#x2219;" horiz-adv-x="244" 
d="M36 194v173h172v-173h-172z" />
    <glyph glyph-name="quotesinglbase" unicode="&#x201a;" horiz-adv-x="273" 
d="M-22 -102l97 251h176l-149 -251h-124z" />
    <glyph glyph-name="quotedblbase" unicode="&#x201e;" horiz-adv-x="475" 
d="M-22 -102l97 251h176l-149 -251h-124zM180 -102l97 251h176l-149 -251h-124z" />
    <glyph glyph-name="Acircumflex" unicode="&#xc2;" horiz-adv-x="537" 
d="M36 0v615q0 33 5 50t19 30q25 25 64 25h289q40 0 65 -25q13 -13 18 -29.5t5 -50.5v-615h-194v158h-77v-158h-194zM96 756l69 124h209l66 -124h-145l-27 55l-31 -55h-141zM307 311v209q0 48 -38 48q-39 0 -39 -48v-209h77z" />
    <glyph glyph-name="Ecircumflex" unicode="&#xca;" horiz-adv-x="460" 
d="M36 148v419l2 32q8 68 36 94.5t89 26.5h261v-158h-192v-123h191v-163h-191v-114h190v-162h-256q-130 0 -130 148zM58 756l69 124h209l66 -124h-145l-27 55l-31 -55h-141z" />
    <glyph glyph-name="Aacute" unicode="&#xc1;" horiz-adv-x="537" 
d="M36 0v615q0 33 5 50t19 30q25 25 64 25h289q40 0 65 -25q13 -13 18 -29.5t5 -50.5v-615h-194v158h-77v-158h-194zM167 756l66 125h173l-120 -125h-119zM307 311v209q0 48 -38 48q-39 0 -39 -48v-209h77z" />
    <glyph glyph-name="Edieresis" unicode="&#xcb;" horiz-adv-x="460" 
d="M36 148v419l2 32q8 68 36 94.5t89 26.5h261v-158h-192v-123h191v-163h-191v-114h190v-162h-256q-130 0 -130 148zM44 759v123h154v-123h-154zM263 758v124h154v-124h-154z" />
    <glyph glyph-name="Egrave" unicode="&#xc8;" horiz-adv-x="460" 
d="M36 148v419l2 32q8 68 36 94.5t89 26.5h261v-158h-192v-123h191v-163h-191v-114h190v-162h-256q-130 0 -130 148zM94 879h175l62 -123h-116z" />
    <glyph glyph-name="Iacute" unicode="&#xcd;" horiz-adv-x="267" 
d="M36 0v720h195v-720h-195zM32 756l66 125h173l-120 -125h-119z" />
    <glyph glyph-name="Icircumflex" unicode="&#xce;" horiz-adv-x="267" 
d="M36 0v720h195v-720h-195zM-39 756l69 124h209l66 -124h-145l-27 55l-31 -55h-141z" />
    <glyph glyph-name="Idieresis" unicode="&#xcf;" horiz-adv-x="267" 
d="M36 0v720h195v-720h-195zM-53 759v123h154v-123h-154zM166 758v124h154v-124h-154z" />
    <glyph glyph-name="Igrave" unicode="&#xcc;" horiz-adv-x="267" 
d="M36 0v720h195v-720h-195zM-3 879h175l62 -123h-116z" />
    <glyph glyph-name="Oacute" unicode="&#xd3;" horiz-adv-x="535" 
d="M29 266v183l1 30q0 134 33 182.5t123 56.5l34 2h96l33 -2q71 -6 103 -34t48 -100q4 -18 5 -41t1 -94v-183v-31q0 -72 -13 -110.5t-44.5 -71t-67 -43t-113.5 -10.5h-50q-85 0 -135 57q-53 61 -53 174zM166 756l66 125h173l-120 -125h-119zM268 157q20 0 29 13.5t9 48.5
v310q0 43 -26 49q-4 1 -7 1h-7q-36 0 -36 -50v-310q0 -34 9 -48t29 -14z" />
    <glyph glyph-name="Ocircumflex" unicode="&#xd4;" horiz-adv-x="535" 
d="M29 266v183l1 30q0 134 33 182.5t123 56.5l34 2h96l33 -2q71 -6 103 -34t48 -100q4 -18 5 -41t1 -94v-183v-31q0 -72 -13 -110.5t-44.5 -71t-67 -43t-113.5 -10.5h-50q-85 0 -135 57q-53 61 -53 174zM95 756l69 124h209l66 -124h-145l-27 55l-31 -55h-141zM268 157
q20 0 29 13.5t9 48.5v310q0 43 -26 49q-4 1 -7 1h-7q-36 0 -36 -50v-310q0 -34 9 -48t29 -14z" />
    <glyph glyph-name="Ograve" unicode="&#xd2;" horiz-adv-x="535" 
d="M29 266v183l1 30q0 134 33 182.5t123 56.5l34 2h96l33 -2q71 -6 103 -34t48 -100q4 -18 5 -41t1 -94v-183v-31q0 -72 -13 -110.5t-44.5 -71t-67 -43t-113.5 -10.5h-50q-85 0 -135 57q-53 61 -53 174zM131 879h175l62 -123h-116zM268 157q20 0 29 13.5t9 48.5v310
q0 43 -26 49q-4 1 -7 1h-7q-36 0 -36 -50v-310q0 -34 9 -48t29 -14z" />
    <glyph glyph-name="Uacute" unicode="&#xda;" horiz-adv-x="541" 
d="M36 93v627h195v-514q0 -19 1.5 -29t13.5 -18l10 -5q11 -3 18 -3q36 0 36 58v511h195v-627l-1 -10l-1 -21q0 -33 -18.5 -47.5t-61.5 -14.5h-306q-43 0 -61.5 14.5t-18.5 47.5l-1 22v9zM169 756l66 125h173l-120 -125h-119z" />
    <glyph glyph-name="Ucircumflex" unicode="&#xdb;" horiz-adv-x="541" 
d="M36 93v627h195v-514q0 -19 1.5 -29t13.5 -18l10 -5q11 -3 18 -3q36 0 36 58v511h195v-627l-1 -10l-1 -21q0 -33 -18.5 -47.5t-61.5 -14.5h-306q-43 0 -61.5 14.5t-18.5 47.5l-1 22v9zM98 756l69 124h209l66 -124h-145l-27 55l-31 -55h-141z" />
    <glyph glyph-name="Ugrave" unicode="&#xd9;" horiz-adv-x="541" 
d="M36 93v627h195v-514q0 -19 1.5 -29t13.5 -18l10 -5q11 -3 18 -3q36 0 36 58v511h195v-627l-1 -10l-1 -21q0 -33 -18.5 -47.5t-61.5 -14.5h-306q-43 0 -61.5 14.5t-18.5 47.5l-1 22v9zM134 879h175l62 -123h-116z" />
    <glyph glyph-name="dotlessi" unicode="&#x131;" horiz-adv-x="252" 
d="M36 0v562h180v-562h-180z" />
    <glyph glyph-name="circumflex" unicode="&#x2c6;" horiz-adv-x="344" 
d="M0 598l69 124h209l66 -124h-145l-27 55l-31 -55h-141z" />
    <glyph glyph-name="tilde" unicode="&#x2dc;" horiz-adv-x="395" 
d="M0 605l2 17q23 102 114 102q15 0 32 -3l53 -16l21 -8l6 -2l8 -2q18 -5 34 -5q25 0 33 21l92 1l-1 -10q-18 -101 -115 -101h-15q-7 1 -10 1q-12 2 -20.5 4t-27.5 9l-4 2l-27 10q-22 9 -30 10.5t-11 1.5h-7q-26 0 -33 -26l-2 -6h-92z" />
    <glyph glyph-name="macron" unicode="&#xaf;" horiz-adv-x="354" 
d="M0 611v101h352v-101h-352z" />
    <glyph glyph-name="breve" unicode="&#x2d8;" horiz-adv-x="378" 
d="M17 745h141l31 -55l27 55h145q0 -67 -51 -113t-120 -46q-58 0 -104 35q-30 23 -49.5 56t-19.5 68z" />
    <glyph glyph-name="ring" unicode="&#x2da;" horiz-adv-x="266" 
d="M17 653q0 27 23 47t69 25h48q33 -4 53 -14q39 -21 39 -59q0 -20 -15 -36t-34 -24.5t-46 -8.5h-42q-45 0 -70 21t-25 49zM111 642l6 -1l7 -1h9h8l8 1l6 1q11 3 16 8q5 4 0 9t-17 8l-5 1l-9 1h-7h-7l-8 -1l-6 -1q-19 -5 -19 -13q0 -7 18 -12z" />
    <glyph glyph-name="cedilla" unicode="&#xb8;" horiz-adv-x="191" 
d="M0 -171l38 138h153l-62 -138h-129z" />
    <glyph glyph-name="caron" unicode="&#x2c7;" horiz-adv-x="344" 
d="M0 722h141l31 -56l27 56h145l-66 -124h-209z" />
    <glyph glyph-name="Lslash" unicode="&#x141;" horiz-adv-x="399" 
d="M274 331v-159q15 -3 32 -3q26 0 71 10l16 5l14 4l-30 -188h-297v218l-59 -34l-58 100l117 68v218v18q0 45 -8 92l-4 22l-4 18h231q-10 -28 -15.5 -54t-5.5 -57v-24v-120l83 48l58 -100z" />
    <glyph glyph-name="lslash" unicode="&#x142;" horiz-adv-x="366" 
d="M263 327v-327h-179v223l-67 -39l-58 100l125 73v363h179v-259l90 52l58 -100z" />
    <glyph glyph-name="Scaron" unicode="&#x160;" horiz-adv-x="435" 
d="M26 0v164h185v110h-88q-47 0 -71 26.5t-24 88.5l-1 24v158q0 67 13 96t49 45q11 4 25.5 6t47.5 2h246v-158h-187v-105h99q24 0 38.5 -5t26.5 -17t17 -27.5t5 -44.5v-240q0 -38 -1 -48.5t-8 -23.5q-14 -28 -35.5 -39.5t-62.5 -11.5h-274zM40 872h141l31 -56l27 56h145
l-66 -124h-209z" />
    <glyph glyph-name="scaron" unicode="&#x161;" horiz-adv-x="445" 
d="M36 0v140h192v58h-124q-56 0 -66 50l-2 13v218q0 48 32 70q15 11 30 12h5l24 1h280v-139h-191v-62h123q57 0 68 -55l2 -16v-221l-1 -14q-4 -25 -22 -40t-42 -15h-308zM50 722h141l31 -56l27 56h145l-66 -124h-209z" />
    <glyph glyph-name="Zcaron" unicode="&#x17d;" horiz-adv-x="408" 
d="M4 0l160 562h-160l28 158h376l-167 -546h158l-24 -174h-371zM30 872h141l31 -56l27 56h145l-66 -124h-209z" />
    <glyph glyph-name="zcaron" unicode="&#x17e;" horiz-adv-x="384" 
d="M13 0l133 420h-112v142h340l-132 -426h128v-136h-357zM20 722h141l31 -56l27 56h145l-66 -124h-209z" />
    <glyph glyph-name="Eth" unicode="&#xd0;" horiz-adv-x="537" 
d="M230 416h35v-116h-35v-138h35q24 0 32.5 11.5t8.5 47.5v285q0 56 -42 56h-34v-146zM36 300h-37v116h37v304h356q52 0 80.5 -35t28.5 -106v-439q0 -76 -19 -105q-23 -35 -89 -35h-357v300z" />
    <glyph glyph-name="eth" unicode="&#xf0;" 
d="M274 163v7v32q0 46 -31 46q-3 0 -11 -2q-26 -9 -26 -41v-31q0 -35 22 -41q10 -2 15 -2q23 0 31 32zM274 480l-88 -51l-58 100l142 83q-7 18 -27.5 20.5t-25.5 2.5q-19 0 -33 -6q-2 -1 -5 -3l-70 144h251q77 0 93 -52l69 40l58 -100l-123 -72v-485q1 -38 -26 -69.5
t-79 -31.5h-227q-41 0 -60.5 10t-31.5 38q-3 7 -5 20t-2 34v187q0 95 84 95h164v96z" />
    <glyph glyph-name="Yacute" unicode="&#xdd;" horiz-adv-x="524" 
d="M29 444v276h193v-287q0 -43 9.5 -68.5t30.5 -42.5q20 16 29.5 42t9.5 69v287h194v-276l-2 -35q-8 -60 -36 -109t-82 -94l-17 -13v-193h-192v193l-17 13q-54 45 -81.5 92.5t-36.5 110.5zM169 756l66 125h173l-120 -125h-119z" />
    <glyph glyph-name="yacute" unicode="&#xfd;" horiz-adv-x="490" 
d="M29 391v171h182v-236v-50l1 -28q3 -37 10 -58t23 -46q17 27 25.5 56.5t8.5 75.5l-1 50v236h183v-171l-1 -25q0 -60 -3.5 -91.5t-11.5 -65.5q-18 -73 -38 -114t-56 -79l-16 -16v-194h-180l3 194l-17 16q-43 47 -68.5 110t-38.5 163q-4 45 -4.5 65.5t-0.5 36.5zM152 598
l66 125h173l-120 -125h-119z" />
    </font>
</defs>
</svg>
