<?xml version="1.0" encoding="utf-8"?>
<!-- Generator: Adobe Illustrator 21.0.0, SVG Export Plug-In . SVG Version: 6.00 Build 0)  -->
<svg version="1.1" id="Layer_1" xmlns="http://www.w3.org/2000/svg" xmlns:xlink="http://www.w3.org/1999/xlink" x="0px" y="0px"
	 viewBox="0 0 732.4 204.7" style="enable-background:new 0 0 732.4 204.7;" xml:space="preserve">
<style type="text/css">
	.st0{fill:#EF413D;}
	.st1{fill:#FDB913;}
	.st2{fill:#541C1D;}
</style>
<path class="st0" d="M0,192.3v-41.4c0-8.1,2.8-10.6,10.8-10.6h31v16c-1.6-1-2.8-1.3-5.5-1.5l-2-0.1h-1.2H21.4
	c-1.6,0-2.8,0.6-3.4,1.7c-0.4,0.7-0.4,1-0.4,4.1v25.3c0,2.8,0.7,3.6,3.1,3.6h3.9v-14c0-2.7-0.4-4.1-1.2-6c-0.3-0.6-0.6-1.3-1.1-2
	h19.6v23.8c0,9.4-2.9,13.4-7.9,13.4H8.9C2.5,204.7,0,201.8,0,192.3z"/>
<path class="st0" d="M50.2,204.7v-64.4h29.3c8.5,0,12.5,3.6,12.5,10.8v9.1c0,0.8-0.1,1.5-0.2,2.2c-0.6,5.7-2.9,8.1-8.4,9.3
	c-0.5,0.1-1,0.2-1.5,0.2c0.5,0.1,1,0.1,1.5,0.3c6.3,1.3,8.9,4.6,8.9,11v13.9c0,3.2,0.3,4.3,1.7,6.8c0.2,0.3,0.4,0.5,0.5,0.8H76
	c-1-1.3-1.5-2.9-1.8-5.5c0-0.4,0-0.8,0-1.3v-13.3c0-0.4-0.1-0.6-0.1-1c-0.4-2.2-1.5-3-3.9-3h-2.6v24.2
	C67.7,204.7,50.2,204.7,50.2,204.7z M69.7,165.9c3.8,0,4.9-1.5,4.5-8.4c-0.2-2.1-1.7-3.3-4.7-3.3h-1.6v11.7H69.7z"/>
<path class="st0" d="M100.2,204.7v-64.4h17.4v64.4H100.2z"/>
<path class="st0" d="M122,154.4v-14.1h34.8v14.1h-8.9v50.3h-17.4v-50.3H122z"/>
<path class="st1" d="M161.8,192.3v-41.4c0-8.1,2.8-10.6,10.8-10.6h31v16c-1.6-1-2.8-1.3-5.5-1.5l-2-0.1H195h-11.8
	c-1.6,0-2.8,0.6-3.4,1.7c-0.4,0.7-0.4,1-0.4,4.1v25.3c0,2.8,0.7,3.6,3.1,3.6h3.9v-14c0-2.7-0.4-4.1-1.2-6c-0.3-0.6-0.6-1.3-1.1-2
	h19.6v23.8c0,9.4-2.9,13.4-7.9,13.4h-25.2C164.3,204.7,161.8,201.8,161.8,192.3z"/>
<path class="st1" d="M212,204.7v-64.4h29.3c8.5,0,12.5,3.6,12.5,10.8v9.1c0,0.8-0.1,1.5-0.2,2.2c-0.6,5.7-2.9,8.1-8.4,9.3
	c-0.5,0.1-1,0.2-1.5,0.2c0.5,0.1,1,0.1,1.5,0.3c6.3,1.3,8.9,4.6,8.9,11v13.9c0,3.2,0.3,4.3,1.7,6.8c0.2,0.3,0.4,0.5,0.5,0.8h-18.5
	c-1-1.3-1.5-2.9-1.8-5.5c0-0.4,0-0.8,0-1.3v-13.3c0-0.4-0.1-0.6-0.1-1c-0.4-2.2-1.5-3-3.9-3h-2.6v24.2
	C229.5,204.7,212,204.7,212,204.7z M231.5,165.9c3.8,0,4.9-1.5,4.5-8.4c-0.2-2.1-1.7-3.3-4.7-3.3h-1.6v11.7H231.5z"/>
<path class="st1" d="M262,204.7v-64.4h17.4v64.4H262z"/>
<path class="st1" d="M285.7,140.3h18c0.6,1.8,1,3.4,1.2,5.7l0.1,1.4l0.1,1.1c0.1-0.4,0.3-1,0.4-1.4c2-4.7,4.7-6.8,8.8-6.8h7.2
	c5.6,0,8,3.1,8,11v53.4h-17.4v-44.6c0-2.5-0.4-3.3-1.4-4.1c-0.6-0.4-1.3-0.6-2-0.6c-2.1-0.1-3.5,1.6-3.5,4.9v44.5h-17.4v-52.8
	c0-3.8-0.4-6-1.5-10C286.1,141.4,285.9,140.8,285.7,140.3z"/>
<path class="st1" d="M337.8,204.7v-64.4h31.8c6.1,0,9.7,4,9.7,12.6v39.3c0,8.4-1.3,12.5-9.7,12.5H337.8z M358.2,190.2
	c2.8,0,3.7-1,3.7-5.3v-25.5c0-3.3-1.4-5-3.8-5h-3v35.8H358.2z"/>
<path class="st0" d="M387.4,178.9c0-2.5,0.7-3.8,2.7-5.1l5.9-4l-5.6-6.2c-1.2-1.3-1.3-2.3-1.3-3.8v-13.5c0-3.7,2.3-5.9,7.8-5.9h24.6
	c3.4,0,4.2,0.2,5.5,1.5c1,1.1,1.4,2.2,1.4,4v13.9c0.1,4.4-0.9,6.1-4.9,8.5c-0.4,0.3-0.7,0.4-1.2,0.6l-4,2l9.6,10.7l8.2-5.3l8,10.6
	l-8.2,5.2c0,0,7.2,10.9,8.1,12.7H426l-3.3-4.8l-3.9,2.3c-0.7,0.4-3,1.4-3.4,1.6c-1.9,0.6-3.3,0.9-4.5,0.9h-14.6
	c-6.4,0-8.4-1.7-8.9-6.8C387.4,197.6,387.4,178.9,387.4,178.9z M405.7,192.2h2.8c2,0,3.3-0.4,4.1-0.9l2.1-1.4l-9.4-11
	c-0.2,0.1-0.4,0.2-0.5,0.3c-1.3,0.8-2,1.9-2,2.9v7.2C402.8,189.3,402,192.2,405.7,192.2z M406.1,159.5l2.9,2.5l3.3-2.4
	c0.7-0.5,1-1.3,1-3v-3.1c0-1.4-0.7-2.1-2.3-2.1h-3.4c-1.7,0-2.4,0.7-2.4,2v3.2C405.1,158.2,405.4,158.9,406.1,159.5z"/>
<path class="st2" d="M449.1,192.3v-41.4c0-8.1,2.8-10.6,10.8-10.6h31v16c-1.6-1-2.8-1.3-5.5-1.5l-2-0.1h-1.2h-11.8
	c-1.6,0-2.8,0.6-3.4,1.7c-0.4,0.7-0.4,1-0.4,4.1v25.3c0,2.8,0.7,3.6,3.1,3.6h3.9v-14c0-2.7-0.4-4.1-1.2-6c-0.3-0.6-0.6-1.3-1.1-2
	h19.6v23.8c0,9.4-2.9,13.4-7.9,13.4H458C451.6,204.7,449.1,201.8,449.1,192.3z"/>
<path class="st2" d="M499.3,204.7v-64.4h29.3c8.5,0,12.5,3.6,12.5,10.8v9.1c0,0.8-0.1,1.5-0.2,2.2c-0.6,5.7-2.9,8.1-8.4,9.3
	c-0.5,0.1-1,0.2-1.5,0.2c0.5,0.1,1,0.1,1.5,0.3c6.3,1.3,8.9,4.6,8.9,11v13.9c0,3.2,0.3,4.3,1.7,6.8c0.2,0.3,0.4,0.5,0.5,0.8h-18.5
	c-1-1.3-1.5-2.9-1.8-5.5c0-0.4,0-0.8,0-1.3v-13.3c0-0.4-0.1-0.6-0.1-1c-0.4-2.2-1.5-3-3.9-3h-2.6v24.2
	C516.8,204.7,499.3,204.7,499.3,204.7z M518.8,165.9c3.8,0,4.9-1.5,4.5-8.4c-0.2-2.1-1.7-3.3-4.7-3.3h-1.6v11.7H518.8z"/>
<path class="st2" d="M548.7,180.9v-16.4c0-0.9,0-1.8,0.1-2.7c0.4-16.4,3.5-20.5,14-21.4c1-0.1,2.1-0.2,3-0.2h8.6c1,0,2,0.1,3,0.2
	c8.4,0.7,11.6,3.5,13.5,12c0.5,2.4,0.5,3.6,0.5,12.1v16.4c0,0.9,0,1.8,0,2.8c-0.4,9-1.6,12.5-5.2,16.3c-3.8,3.8-6.4,4.7-16.1,4.7
	h-4.5c-9.8,0-16.3-6.8-16.8-20.7C548.7,183.1,548.8,182.1,548.7,180.9z M570.1,190.7c2.3,0.1,3.4-1.4,3.4-5.5v-27.7
	c0-2.9-0.8-4-2.3-4.4c-3.1-0.5-4.5,0.8-4.5,4.4v27.7C566.7,189.1,567.7,190.7,570.1,190.7z"/>
<path class="st2" d="M598.3,180.9v-16.4c0-0.9,0-1.8,0.1-2.7c0.4-16.4,3.5-20.5,14-21.4c1-0.1,2.1-0.2,3-0.2h8.6c1,0,2,0.1,3,0.2
	c8.4,0.7,11.6,3.5,13.5,12c0.5,2.4,0.5,3.6,0.5,12.1v16.4c0,0.9,0,1.8,0,2.8c-0.4,9-1.6,12.5-5.2,16.3c-3.8,3.8-6.4,4.7-16.1,4.7
	h-4.5c-9.8,0-16.3-6.8-16.8-20.7C598.3,183.1,598.4,182.1,598.3,180.9z M619.7,190.7c2.3,0.1,3.4-1.4,3.4-5.5v-27.7
	c0-2.9-0.8-4-2.3-4.4c-3.1-0.5-4.5,0.8-4.5,4.4v27.7C616.3,189.1,617.4,190.7,619.7,190.7z"/>
<path class="st2" d="M648,159.1v-18.8h17.4v28.9c0,4.1,0,5.4,0.3,7.3c0.7,6.4,1.5,9.2,3.4,12.6c1.8-3.4,2.7-6.2,3.4-12.7
	c0.2-1.9,0.3-3,0.3-7.2v-28.9h17.4v18.8v3.9v1.7c0,0.9-0.1,1.8-0.1,2.7c-0.7,11.4-2.1,17.7-6.1,27.1c-1.4,3.5-3.2,6.9-5.2,10.2
	h-19.4c-2-3.3-3.7-6.7-5.2-10.2c-3.8-9.4-5.3-15.7-6-27.1c-0.1-0.9-0.1-1.8-0.1-2.7l-0.1-1.9V159.1z"/>
<path class="st2" d="M697.7,191.5V154c0-1,0.1-2,0.2-2.9c1-8.1,4-10.8,11.2-10.8h23.3v14.1h-17.2v11h17.1V180h-17.1v10.2h17v14.5
	h-22.9C701.9,204.7,697.7,200.4,697.7,191.5z"/>
<g>
	<path class="st0" d="M163.3,111.3c0,4.1-0.5,10.9-10.1,10.9c-2,0-6.3,0-8.9-2.6c-1.6-1.7-2.4-4.3-2.4-8.3V96.9
		c0-1.3-0.8-1.7-2.9-1.7v-1.8l12.7,0v1.8c-2.1,0-2.9,0.4-2.9,1.7v15.3c0,3.5,0.3,7.4,5.5,7.5c5.9,0.2,6.3-4.6,6.3-8V97
		c0-1.3-0.2-1.8-2.3-1.8l-0.7,0v-1.8l8.7,0v1.8l-0.7,0c-2,0-2.3,0.5-2.3,1.8L163.3,111.3L163.3,111.3z"/>
	<path class="st0" d="M207.9,121.6l-14.1,0v-1.8l0.9,0c2.1,0,2.7-0.9,2.7-2.2V95.9l-2.8,0c-1.5,0-2,0.3-2.5,1
		c-0.5,0.8-0.5,2.7-0.6,4l-2.4,0v-7.5l23.4,0.1v7.5l-2.5,0c0-1.3,0-3.3-0.6-4c-0.5-0.7-1.1-1-2.5-1l-2.8,0v21.7
		c0,1.3,0.5,2.2,2.7,2.2l0.9,0L207.9,121.6L207.9,121.6z"/>
	<g>
		<path class="st0" d="M188.6,113.7c-0.4,4.6-4,8.6-11.3,8.6c-4,0-8.3-1.3-9.9-2.5v-6.9l2.5,0c0,0.8,0,1.5,0.2,2.5
			c0.1,0.7,0.3,1.4,0.9,2c1,1.2,2.9,2.5,6.4,2.6c4.4,0.1,6.5-2.3,6.4-4.6c-0.1-3.2-1.8-3.8-7.9-5.2c-6.1-1.4-8.6-3.8-8.6-8.8
			c0-4.7,3.5-8.9,10.9-8.8c4.4,0.1,6.7,0.8,8.8,1.8v6.6l-2.5,0c0-0.7-0.1-1.5-0.2-2.3c-0.1-0.8-0.3-1.5-1-2.1
			c-1.9-1.6-4.4-1.7-6.1-1.6c-2.3,0.1-5.3,1.3-5.3,3.9c0,2.5,1,3.4,6.3,4.5c4.8,1,6.7,1.6,8.3,3.3
			C188.3,108.4,188.9,110.8,188.6,113.7"/>
		<path class="st0" d="M28.2,111.3c-0.6,5.5-4.9,10.6-14.5,10.6c-5.3,0-10.7-1.7-12.9-3.3v-9.3l2.9,0c0.1,1.1,0.1,2,0.3,3
			c0.2,0.9,0.5,2,1.1,2.8c1.7,2.1,4.2,3.7,8.6,3.8c6.4,0.1,8.6-3.6,8.5-6.8c-0.1-3.9-2.8-5-10.1-6.9c-7-1.8-11.6-4.4-11.6-11.2
			c0-6.5,4.6-11.6,14.1-11.6c5.7,0,8.7,1.2,11.3,2.4V93l-2.8,0c0-0.8-0.1-2-0.3-3c-0.2-1.2-0.9-2.2-1.6-2.7c-2.4-1.6-4.6-2-7.4-1.9
			c-4,0.1-7.2,2.1-7.3,5.5c-0.1,3.3,1.2,4.9,8.2,6.4c5.9,1.3,9,2.5,10.9,4.4C28.3,104.3,28.7,107.5,28.2,111.3"/>
	</g>
	<path class="st0" d="M57.9,95c2.1,0,2.2,0.4,2.2,1.7v20.9c0,1.3-0.2,1.8-2.3,1.8l-0.7,0v1.8l8.8,0v-1.8l-0.7,0
		c-2.1,0-2.3-0.5-2.3-1.8V100l11.8,21.3l6.7,0V96.9c0-1.3,0.3-1.9,2.3-1.9l2,0v-3.1c0-2.7,0.2-5.8,4.2-5.8l4.4,0v30.1
		c0,2.5-0.6,3.3-3.5,3.3l-1,0v1.8l16.8,0v-1.8l-0.9,0c-2.9,0-3.6-0.8-3.6-3.3V86.2l4.4,0c3.9,0,4.1,3.1,4.1,5.8v3.1l2.7,0
		c2.1,0,2.3,0.5,2.3,1.8v20.8c0,1.3-0.9,1.8-3,1.8v1.8l13,0v-1.8c-2.1,0-3-0.5-3-1.8V95.5l3.4,0c2.7,0,4.7,1,4.7,5.1
		c0,2.6-1,5.6-4.8,5.5l-2.1,0c0,0,5.1,10.4,6.1,12.3c1.2,2.4,2.7,2.9,5.7,2.9l5.1,0v-1.8c-0.7,0-2.1-0.1-2.9-1.4l-6.1-10.6
		c3.4-0.7,5.9-3.3,5.9-7.1c0-6.9-6.9-7.3-11.4-7.3l-12.8,0v-9.9l-30.4-0.1v9.9l-7.3,0V95l0.7,0c2.1,0,2.3,0.6,2.3,1.9v17.4
		L66.8,93.1l-18.5,0v1.8l0.7,0c2.1,0,2.3,0.4,2.3,1.7v14.9c0,3.3-0.5,8.2-6.3,8c-5.2-0.2-5.5-4.1-5.5-7.5V96.6
		c0-1.3,0.8-1.7,2.9-1.7v-1.8l-12.7,0v1.8c2.1,0,2.9,0.4,2.9,1.7V111c0,4,0.8,6.6,2.3,8.3c2.6,2.6,7,2.6,9,2.6
		c9.6,0,10.1-6.8,10.1-12.6V94.9c0,0.4,0.2,0,2.2,0L57.9,95L57.9,95z"/>
	<g>
		<path class="st0" d="M27,46.3L26.3,48c-0.5,1.4-0.6,3.9-0.2,5.3l3.1,16.1c0.2,1.4,0.7,2,1.1,1.9c0.5-0.1,0.5-1.2,0.2-3.6
			l-2.3-21.3C28,45,27.5,44.9,27,46.3"/>
		<path class="st0" d="M33.5,63.2c0.1,1.4,0.2,3-0.3,3.2c-0.4,0.1-0.7-0.5-0.9-2.2l-1-9.5c-0.2-1.4,0.1-4.2,0.6-5.2
			c0.5-1,1-0.7,1,0.6L33.5,63.2z"/>
		<path class="st0" d="M37.8,31.3l-1.2,27.6c0,1.3-0.1,2.9-0.6,2.8c-0.3-0.1-0.6-0.8-0.6-2.1l-0.5-22.7c0-1.1,0.4-3,1-4.1l0.8-1.6
			C37.3,30.1,37.9,30.2,37.8,31.3"/>
		<path class="st0" d="M41.9,36.9L40,58c-0.2,1.5-0.4,3-0.9,3c-0.3,0-0.6-0.9-0.4-2.3l0.8-18.1c0.1-1.3,1-3.3,1.6-4.3
			C41.7,35.3,42.1,35.8,41.9,36.9"/>
		<path class="st0" d="M42.6,56.5c-0.4,0-0.4-1.5-0.3-2.6l3-29.2c0.2-1.1,0.9-2.7,1.7-3.7l0.3-0.3c0.8-1,1.4-0.9,1.2,0.2l-5,33.1
			C43.3,55.4,43.1,56.5,42.6,56.5"/>
		<path class="st0" d="M51.4,25.8c0.7-0.7,1.7-0.3,1.5,0.7L46.5,56c-0.2,1.1-0.7,2.7-1.2,2.6c-0.4,0-0.4-1.6-0.1-2.8l4.6-26.6
			C50.1,28,50.8,26.5,51.4,25.8"/>
		<path class="st0" d="M52.1,55.6c-0.5,1-1,2.5-1.7,2.2c-0.5-0.2,0.5-2.5,0.5-2.5l16-39c0.5-1.1,1.7-2.6,2.9-2
			c1.1,0.5-0.1,2.7-0.5,3.7C59.6,39.9,56.8,45.5,52.1,55.6"/>
		<path class="st0" d="M55.7,53.7c0.4,0.3,1.3-0.8,2-2L87,2.9c0.5-0.9,0.8-2.3-0.2-2.8c-0.8-0.4-2.2,0.4-2.9,1.6L56.6,50.8
			C55.8,52.3,55.3,53.4,55.7,53.7"/>
		<path class="st0" d="M56.4,59c-0.4-0.4,0.3-1.6,1.1-2.8l31.3-45.4c0.8-1.3,2.7-2.7,3.9-2c1,0.6,1.1,1.9,0.2,3.1L58.6,57
			C57.7,58.3,56.8,59.4,56.4,59"/>
		<path class="st0" d="M65.6,53.7c0,0-2.1,2.2-2.5,1.7c-0.4-0.5,0.4-1.4,1.3-2.5l1-1.2l43.8-50.1c0.7-0.9,1.7-0.9,2.6-0.2l1.3,1.6
			c0.7,0.8,0.7,2.2-0.1,3L65.6,53.7z"/>
		<path class="st0" d="M62.1,61.8c-0.3-0.3,0.4-1.4,1.8-2.6l46.5-42.6c0.8-0.9,2-0.8,2.8-0.1c1,0.9,1.3,1.8,1.5,2.6
			c0.3,1.4-0.5,1.9-1.4,2.8L64.7,60.3C63.5,61.4,62.5,62.1,62.1,61.8"/>
		<path class="st0" d="M71.7,58l54.1-38.5c1-0.8,2-0.6,2.2,0.4l1.3,4.3c0.3,1.1-0.5,2.5-1.6,3.3L72.6,59.2c-1.4,0.9-2.8,1.6-3.1,1.1
			C69.1,59.8,70.5,59,71.7,58"/>
		<path class="st0" d="M66,66.1c-0.2-0.6,1.3-1.2,2.8-2l48.4-24.3c1.3-0.7,2.3-0.3,2.3,0.8l0.2,5.4c0,1.2-1.3,2.6-2.8,3.2L69.2,65.7
			C67.6,66.3,66.1,66.7,66,66.1"/>
		<path class="st0" d="M122.7,61.6l-46.7,6.6c-1.8,0.3-3.2,0.6-3.3,0c-0.2-0.6,1.4-1,3.1-1.6L124.2,52c1.6-0.5,2.8,0.1,2.6,1.3
			l-0.7,5.5C126,60.1,124.5,61.3,122.7,61.6"/>
		<path class="st0" d="M69.5,72.7c-0.1-0.7,2.2-1.1,4-1.3l41.3-4.8c1.8-0.2,3.4,0.8,2.8,2.4l-0.8,2.2c-0.5,1.4-2,2.4-3.9,2.2
			l-39.6-0.1C71.5,73.4,69.6,73.4,69.5,72.7"/>
		<path class="st0" d="M63.8,11.4c0,0-12,36.7-12.7,38.7c-0.7,2.1-1.4,4-2.1,3.8c-0.4-0.1-0.1-1.5,0.4-3.1L60.7,11
			c0.5-1.6,2.2-3,2.9-2.9C64.8,8.4,64.1,10.4,63.8,11.4"/>
	</g>
</g>
<g>
	<g>
		<path class="st2" d="M228.6,121.4v-19.6h4.6v19.6H228.6z"/>
		<path class="st2" d="M256,121.4h-3.7c-1,0-1.5-0.3-2-1.2l-6.7-12.1h-0.3v13.3H239v-19.6h4.3c1.1,0,1.5,0.3,2,1.2l6.2,11.2h0.3
			v-12.3h4.4V121.4z"/>
		<path class="st2" d="M272.9,120.1c-0.3,1-0.6,1.3-1.7,1.3h-3.7c-1,0-1.3-0.3-1.7-1.3l-5.8-18.3h5l4.3,15.5h0.4l4.3-15.5h4.7
			L272.9,120.1z"/>
		<path class="st2" d="M282.8,121.4v-19.6h4.6v19.6H282.8z"/>
		<path class="st2" d="M302.1,105.4v15.9h-4.6v-15.9h-6v-3.6h16.5v3.6H302.1z"/>
		<path class="st2" d="M326.9,121.4h-14.7v-19.6h14.7v3.6h-10.1v4.2h7.9v3.4h-7.9v4.7h10.1V121.4z"/>
		<path class="st2" d="M345.9,120.4c-0.6,0.6-1.5,0.9-3,0.9h-7.3c-1.6,0-2.6-0.2-3.3-0.9c-0.8-0.8-1.1-2-1.1-5.5h4.3
			c0.1,1.9,0.1,2.4,0.3,2.6c0.2,0.2,0.4,0.3,1.3,0.3h4.2c0.8,0,1.2-0.1,1.4-0.3c0.2-0.2,0.3-0.8,0.3-2c0-1-0.1-1.4-0.3-1.6
			c-0.2-0.2-0.6-0.3-1.4-0.3l-6-0.6c-1.3-0.1-2.2-0.4-2.8-1c-0.8-0.8-1.1-1.8-1.1-4.5c0-2.5,0.4-3.9,1.3-4.8c0.6-0.6,1.5-0.9,3-0.9
			h6.8c1.7,0,2.7,0.2,3.3,0.8c0.8,0.8,1.1,1.9,1.2,5.3h-4.3c-0.1-1.8-0.1-2.2-0.3-2.4c-0.2-0.2-0.4-0.3-1.2-0.3h-3.9
			c-0.7,0-1,0.1-1.2,0.2c-0.2,0.2-0.3,0.8-0.3,1.8c0,1,0.1,1.4,0.3,1.6c0.2,0.2,0.5,0.2,1.4,0.3l6,0.6c1.3,0.1,2.1,0.4,2.7,1
			c0.8,0.8,1.1,1.8,1.1,4.5C347.2,118.1,346.8,119.5,345.9,120.4z"/>
		<path class="st2" d="M369.8,114.2v7.2h-4.4v-7.2l-7-12.4h4.9l4.3,8.1h0.2l4.3-8.1h4.6L369.8,114.2z"/>
		<path class="st2" d="M390.6,101.8c1.9,0,2.8,0.3,3.5,1c1.1,1,1.9,2.8,1.9,8.8c0,6-0.8,7.8-1.9,8.8c-0.7,0.7-1.6,1-3.5,1h-6.1
			c-1.9,0-2.8-0.3-3.5-1c-1.1-1.1-1.9-2.9-1.9-8.8c0-6,0.8-7.8,1.9-8.8c0.7-0.7,1.6-1,3.5-1H390.6z M384.4,117.5
			c0.2,0.2,0.4,0.3,1.3,0.3h3.7c0.9,0,1.1-0.1,1.3-0.3c0.3-0.3,0.6-1,0.6-5.9c0-5-0.4-5.7-0.6-5.9c-0.2-0.2-0.4-0.3-1.3-0.3h-3.7
			c-0.9,0-1.1,0.1-1.3,0.3c-0.3,0.2-0.6,0.9-0.6,5.9C383.8,116.5,384.2,117.2,384.4,117.5z"/>
		<path class="st2" d="M417.8,113.4c0,4.6-0.5,5.8-1.5,6.8c-0.9,0.9-2.1,1.2-4.7,1.2h-4.2c-2.5,0-3.7-0.3-4.6-1.1
			c-1-1.1-1.5-2.2-1.5-6.8v-11.6h4.6v11.9c0,2.7,0.2,3.1,0.5,3.4c0.3,0.3,0.8,0.4,2.3,0.4h1.8c1.5,0,2-0.1,2.3-0.4
			c0.3-0.3,0.5-0.7,0.5-3.4v-11.9h4.6V113.4z"/>
		<path class="st2" d="M440.6,105.4v15.9H436v-15.9h-6v-3.6h16.5v3.6H440.6z"/>
		<path class="st2" d="M461.5,101.8c1.9,0,2.8,0.3,3.5,1c1.1,1,1.9,2.8,1.9,8.8c0,6-0.8,7.8-1.9,8.8c-0.7,0.7-1.6,1-3.5,1h-6.1
			c-1.9,0-2.8-0.3-3.5-1c-1.1-1.1-1.9-2.9-1.9-8.8c0-6,0.8-7.8,1.9-8.8c0.7-0.7,1.6-1,3.5-1H461.5z M455.3,117.5
			c0.2,0.2,0.4,0.3,1.3,0.3h3.7c0.9,0,1.1-0.1,1.3-0.3c0.3-0.3,0.6-1,0.6-5.9c0-5-0.4-5.7-0.6-5.9c-0.2-0.2-0.4-0.3-1.3-0.3h-3.7
			c-0.9,0-1.1,0.1-1.3,0.3c-0.3,0.2-0.6,0.9-0.6,5.9C454.6,116.5,455,117.2,455.3,117.5z"/>
	</g>
</g>
</svg>
