<?xml version="1.0" encoding="utf-8"?>
<!-- Generator: Adobe Illustrator 21.0.0, SVG Export Plug-In . SVG Version: 6.00 Build 0)  -->
<svg version="1.1" id="Layer_1" xmlns="http://www.w3.org/2000/svg" xmlns:xlink="http://www.w3.org/1999/xlink" x="0px" y="0px"
	 viewBox="0 0 464 431.2" style="enable-background:new 0 0 464 431.2;" xml:space="preserve">
<style type="text/css">
	.st0{fill:#541C1D;}
</style>
<path class="st0" d="M432.4,104.1c-1.8-2.7-3.6-5.4-5.5-7.9c45.7-74.9-62.1-132.4-101.2-68.8c-48.1-8.9-88.3,8.7-93.7,11.2
	c-5.4-2.5-45.1-19.9-92.7-11.4C92.2-39.2-5.1,29.4,37.8,95.3c-2.1,2.8-4.1,5.7-6.1,8.8c-61,92.8-15.2,155.7-15.2,155.7l9.4-9.4
	c0,0,13.3,64.7,83.7,107.2l2.5-14c43.3,46.3,83.5,45.3,120.9,87.5c34.6-40.1,84.8-40.1,124-90.1l1.2,18.4
	c72.3-35.2,77.8-111.9,77.8-111.9l11.2,11.5C447.2,259,493.4,196.9,432.4,104.1z M232.9,355.1c-44.6,0.2-38.8-9.9-38.8-9.9
	c5-3.1,38.8-3.6,38.8-3.6c22.1,0,36.5,4.4,36.5,4.4C269.1,347.1,275.4,354.9,232.9,355.1z M148.4,149.6c3.7-0.8,9.4,1.2,15.8,4.5
	c-0.8-0.3-1.6-0.6-2.4-0.9c0,0-1.4,20.7,13.8,25.1c3.2-6.1,8.8-9.7,12.2-8.6c2.3,1.8,4.5,3.5,6.3,5.1c21.2,17.8,37.6,14.2,37.6,14.2
	s0.2,67.9,0.2,76.2c0,0-61.3-4.8-28.3,37c0,0,5.3-15.3,10.9-10.4c7.8,6.7,18,20.3,18,21.8c0,6,0,18.2,0,18.2l-12.3,0.6
	c-7.1,0.2-29.9,5.7-29.9,5.7c-31.4-77.9-14-136.8-5.6-157.8C153.5,187,148.4,149.6,148.4,149.6z M261.5,302.3
	c27.4-36.3-22.3-36.6-28.9-37C236.7,264.7,300.9,262.3,261.5,302.3z M287.7,181.5c35.5,95.6-9.7,157.1-9.7,157.1
	c27.9-73,10-133.7-2.2-156.2c-6.3,0.6-13.8,0.3-13.8,0.3s9.4-5.8,15.5-11.4c6-5.5,22.5-19.8,41.5-21.6
	C318.9,149.6,315.6,181,287.7,181.5z M343.8,58.1c-7.3,22.5-31,25-41.5,36.6c-12.2,13.4-15.9,38.5-15.9,38.5s26.8-11.7,45.1-8.1
	c21.9,4.4,35.5,14,35.5,14s-34-10.7-65.9,1.7c-31.9,12.3-40.4,43.8-62,29.9L232.9,82l-6.4,88.6c-21.6,13.9-30.2-17.5-62-29.9
	c-31.9-12.4-65.9-1.7-65.9-1.7c19-1.5,34.3,5.9,34.3,5.9c3.9,34.6,24.4,37.7,24.4,37.7c-21.1,79.7,21.6,155.9,28.2,167.5
	c9.8,17.1,46.9,14,46.9,14v38.4c-0.9-7-29.2-21-34.3-23.4c-53.5-23.3-99-78.2-99-78.2l-2.6,19.8C52.9,295.4,36,214.7,36,214.7
	l-11.8,14.8c-22.1-74.1,36.7-134,36.7-134C54.7,84.7,36.2,43,71.7,25c35.5-18,60.7,25.7,60.7,25.7c43.2-11.3,100.5,8.7,100.5,8.7
	c60.5-26.2,100.6-7.1,100.6-7.1c28.3-48.4,68.9-21.6,68.9-21.6C358.2,21.9,343.8,58.1,343.8,58.1z M291.6,178.4
	c15.2-4.4,13.8-25.1,13.8-25.1c-11.3,3.3-26.3,16.5-26.3,16.5C282.5,168.5,288.4,172.1,291.6,178.4z M71.1,44.1
	c0,0,17.9-0.7,26.3,9.7c0,0-22.3-9.5-32.2,9.9c0,0,11-5.6,17.2,0.9c0,0-15.2,11.9-14,24c0,0,27.7-27.5,51.5-32.9
	C120,55.7,93.3,22.1,71.1,44.1z"/>
</svg>
