<?xml version="1.0" encoding="utf-8"?>
<!-- Generator: Adobe Illustrator 21.0.0, SVG Export Plug-In . SVG Version: 6.00 Build 0)  -->
<svg version="1.1" id="Layer_1" xmlns="http://www.w3.org/2000/svg" xmlns:xlink="http://www.w3.org/1999/xlink" x="0px" y="0px"
	 viewBox="0 0 797.8 132.7" style="enable-background:new 0 0 797.8 132.7;" xml:space="preserve">
<style type="text/css">
	.st0{fill:#541C1D;}
	.st1{fill:#EF413D;}
</style>
<g>
	<g>
		<g>
			<path class="st0" d="M291.7,54.4V32.1c0-1.2,1-2.1,2.1-2.1h6.4c1.2,0,2.1-1,2.1-2.1V8.8c0-1.2,1-2.1,2.1-2.1h28.7
				c1.2,0,2.1,1,2.1,2.1v19.1c0,1.2,1,2.1,2.1,2.1h10.6c1.2,0,2.1,1,2.1,2.1v22.2c0,1.2-1,2.1-2.1,2.1h-10.6c-1.2,0-2.1,1-2.1,2.1
				v42.1c0,5.2,1.5,6.5,8.8,6.5h6.1v25.4h-34.7c-0.9,0-1.7,0-2.4-0.2c-7.4-1.3-10-4.4-10.9-15.1c0-0.7-0.2-1.5-0.2-2.2V58.7
				c0-1.2-1-2.1-2.1-2.1h-6.2C292.7,56.5,291.7,55.6,291.7,54.4z"/>
			<path class="st0" d="M448.7,118.2V45.9c0-11.4,5.7-16.8,18.4-16.8h31.4c1.2,0,2.1,1,2.1,2.1v21.9c0,1.2-1,2.1-2.1,2.1h-9.1
				c-6.1,0-7.6,1.3-7.6,7.2v38.7c0,5,1.5,6.1,9,6.1h8c1.2,0,2.1,1,2.1,2.1v21.1c0,1.2-1,2.1-2.1,2.1h-34.3c-6.6,0-8.7-0.6-11.2-2.8
				C450.2,127.4,448.7,124,448.7,118.2z"/>
			<path class="st0" d="M510.8,107.3v-76c0-1.2,1-2.1,2.1-2.1h28.9c1.2,0,2.1,1,2.1,2.1V101c0,5.2,1.5,7.2,5,7.7
				c6.1,0.7,8.5-1.7,8.7-7.7V31.3c0-1.2,1-2.1,2.1-2.1h28.9c1.2,0,2.1,1,2.1,2.1v76c0,9.8-2,14.9-6.8,19.5
				c-4.4,4.1-9.4,5.9-17.3,5.9h-31.7c-7.9,0-13.1-1.8-17.3-5.9C512.8,122.2,510.8,117.2,510.8,107.3z"/>
			<path class="st0" d="M601.2,130.6V2.1c0-1.2,1-2.1,2.1-2.1H632c1.2,0,2.1,1,2.1,2.1v128.4c0,1.2-1,2.1-2.1,2.1h-28.7
				C602.1,132.7,601.2,131.8,601.2,130.6z"/>
			<path class="st0" d="M736.8,130.6V31.3c0-1.2,1-2.1,2.1-2.1H768c1.2,0,2.1,1,2.1,2.1V45l0.7-1.8l1.5-2.9
				c5.9-11.4,14.2-15.1,23.6-11.2c0.2,0.1,0.4,0.1,0.6,0.2c0.9,0.4,1.4,1.2,1.3,2.2l-3.1,33.2c-0.1,1.5-1.7,2.4-3,1.8l-21.8-9.7v74
				c0,1.2-1,2.1-2.1,2.1h-28.9C737.7,132.7,736.8,131.8,736.8,130.6z"/>
		</g>
		<path class="st1" d="M196.5,29.4h-28.3c-1.1,0-2,0.9-2,2v3.9c0,1.9-2.3,2.7-3.5,1.2c0,0,0,0,0,0c-4.3-5.9-6.4-7.1-12.3-7.1h-12.1
			c-6.4,0-11.2,2.8-14.6,8.3c-1.6,2.8-2.5,6.1-2.5,9.7v65.1c0-0.2-0.9,20.1,19.6,20.1h9.6c5.7,0,7.8-1.2,12.1-6.6
			c0.2-0.3,0.6-0.9,1.1-1.6c1-1.4,3.2-0.8,3.2,1v5.2c0,1.1,0.9,2,2,2h27.8c1.1,0,2-0.9,2-2V31.4C198.5,30.3,197.6,29.4,196.5,29.4z
			 M166.5,101.9c0,3.1-0.7,4.9-2.5,6.2c-3.4,2.8-8.2,1.6-9.8-2.4c-0.4-1.2-0.7-2.6-0.7-4.2V60.8c0-5.4,2.1-8,6.2-8
			c3.9,0,6.8,2.6,6.8,7.1V101.9z"/>
		<path class="st0" d="M435.7,29.4h-28.3c-1.1,0-2,0.9-2,2v3.9c0,1.9-2.3,2.7-3.5,1.2c0,0,0,0,0,0c-4.3-5.9-6.4-7.1-12.3-7.1h-12.1
			c-6.4,0-11.2,2.8-14.6,8.3c-1.6,2.8-2.5,6.1-2.5,9.7v65.1c0-0.2-0.9,20.1,19.6,20.1h9.6c5.7,0,7.8-1.2,12.1-6.6
			c0.2-0.3,0.6-0.9,1.1-1.6c1-1.4,3.2-0.8,3.2,1v5.2c0,1.1,0.9,2,2,2h27.8c1.1,0,2-0.9,2-2V31.4C437.7,30.3,436.8,29.4,435.7,29.4z
			 M405.7,101.9c0,3.1-0.7,4.9-2.5,6.2c-3.4,2.8-8.2,1.6-9.8-2.4c-0.4-1.2-0.7-2.6-0.7-4.2V60.8c0-5.4,2.1-8,6.2-8
			c3.9,0,6.8,2.6,6.8,7.1V101.9z"/>
		<path class="st0" d="M722.2,29.4h-28.3c-1.1,0-2,0.9-2,2v3.9c0,1.9-2.3,2.7-3.5,1.2c0,0,0,0,0,0c-4.3-5.9-6.4-7.1-12.3-7.1h-12.1
			c-6.4,0-11.2,2.8-14.6,8.3c-1.6,2.8-2.5,6.1-2.5,9.7v65.1c0-0.2-0.9,20.1,19.6,20.1h9.6c5.7,0,7.8-1.2,12.1-6.6
			c0.2-0.3,0.6-0.9,1.1-1.6c1-1.4,3.2-0.8,3.2,1v5.2c0,1.1,0.9,2,2,2h27.8c1.1,0,2-0.9,2-2V31.4C724.2,30.3,723.3,29.4,722.2,29.4z
			 M692.2,101.9c0,3.1-0.7,4.9-2.5,6.2c-3.4,2.8-8.2,1.6-9.8-2.4c-0.4-1.2-0.7-2.6-0.7-4.2V60.8c0-5.4,2.1-8,6.2-8
			c3.9,0,6.8,2.6,6.8,7.1V101.9z"/>
		<path class="st1" d="M114.9,29.5h-10.1c-1.1,0-2-0.9-2-2V12.1c0-1.1-0.9-2-2-2H73.8c-1.1,0-2,0.9-2,2v15.4c0,1.1-0.9,2-2,2h-6.1
			c-1.1,0-2,0.9-2,2v20.1c0,1.1,0.9,2,2,2h5.9c1.1,0,2,0.9,2,2v60.7c0,0.7,0.2,1.4,0.2,2.1c0.9,10.1,3.3,13,10.2,14.2
			c0.7,0.2,1.4,0.2,2.3,0.2h30.6c1.1,0,2-0.9,2-2v-20c0-1.1-0.9-2-2-2h-3.7c-6.9,0-8.3-1.2-8.3-6.1V55.5c0-1.1,0.9-2,2-2h10.1
			c1.1,0,2-0.9,2-2V31.5C116.9,30.4,116,29.5,114.9,29.5z"/>
		<path class="st1" d="M47.2,67.1H29.7c-1.1,0-2-0.9-2-2v-6.8c0-1.1,0.9-2,2-2H57c1.1,0,2-0.9,2-2v-23c0-1.1-0.9-2-2-2H15.8
			l-4.2,0.2h-0.9c-1.7,0.2-3.5,0.9-5.2,2.1C1.7,34.2,0,37.7,0,43.8v43.6c0,0.7,0.2,1.6,0.3,2.2c1.2,6.2,4.5,8.7,11.4,8.7h14.1
			c1.1,0,2,0.9,2,2v4.2c0,1.1-0.9,2-2,2H2c-1.1,0-2,0.9-2,2v22.2c0,1.1,0.9,2,2,2h46c5.6,0,10.1-3.6,11.1-9.5
			c0.2-0.9,0.2-1.6,0.2-2.4V79.4c0-0.9-0.2-1.9-0.3-2.8C57.7,70.6,53.4,67.1,47.2,67.1z"/>
		<path class="st1" d="M282.6,64.2c0.2-1.2,0.4-2.3,0.4-3.5V31.4c0-1.1-0.9-2-2-2h-28c-1.1,0-2,0.9-2,2v26c0,1,0,1.8-0.2,2.7
			c-0.7,5.5-3.2,9-6.7,10.2c-3.4-1.2-5.8-4.5-6.7-10.2c0-0.8-0.2-1.7-0.2-2.7v-26c0-1.1-0.9-2-2-2h-27.8c-1.1,0-2,0.9-2,2v29.4
			c0,1.2,0.2,2.3,0.4,3.5c1.3,6.1,4.6,10.2,10.9,12.8c0,0,0.1,0,0.2,0.1c1.2,0.5,1.2,2.2,0,2.6l0,0c-7.5,2.8-11.3,7.9-11.3,14.5
			v36.4c0,1.1,0.9,2,2,2h28c1.1,0,2-0.9,2-2v-21c0-2.4,0.5-4.9,1.4-6.8c1.4-3.1,3-6.4,5.1-7.1c2.3,0.7,3.9,4,5.3,7.3
			c0.9,1.7,1.4,4.2,1.4,6.6v21c0,1.1,0.9,2,2,2h28c1.1,0,2-0.9,2-2V94.3c0-6.9-4.2-12.2-12.2-14.9c0,0-0.1,0-0.1,0
			c-0.9-0.3-1-1.6,0-2c0,0,0,0,0,0C277.5,74.9,281.3,70.6,282.6,64.2z"/>
	</g>
</g>
</svg>
